<?xml version="1.0" standalone="no"?>
<!DOCTYPE svg PUBLIC "-//W3C//DTD SVG 20010904//EN"
 "http://www.w3.org/TR/2001/REC-SVG-20010904/DTD/svg10.dtd">
<svg version="1.0" xmlns="http://www.w3.org/2000/svg"
 width="1024.000000pt" height="1024.000000pt" viewBox="0 0 1024.000000 1024.000000"
 preserveAspectRatio="xMidYMid meet">

<g transform="translate(0.000000,1024.000000) scale(0.100000,-0.100000)"
fill="#000000" stroke="none">
<path d="M6020 9494 c-312 -38 -654 -132 -864 -239 -83 -42 -103 -56 -119 -87
-16 -32 -17 -41 -5 -65 16 -34 63 -66 136 -93 51 -19 68 -21 181 -14 92 5 122
4 117 -5 -4 -6 -24 -11 -44 -11 -55 0 -277 -37 -301 -50 -29 -15 -26 -46 6
-67 24 -16 58 -18 338 -19 276 0 323 -3 430 -22 345 -64 565 -147 744 -282
115 -87 115 -85 44 -187 -99 -142 -113 -171 -113 -236 0 -32 7 -74 15 -93 8
-20 12 -41 8 -48 -22 -38 -354 -431 -512 -606 -138 -153 -462 -493 -708 -742
l-215 -217 -64 54 c-119 102 -274 161 -398 153 -60 -4 -91 -13 -182 -55 -60
-27 -142 -61 -183 -73 -93 -30 -143 -68 -204 -155 -57 -83 -144 -174 -173
-181 -12 -3 -64 -1 -117 6 -105 12 -189 0 -267 -40 -99 -51 -145 -115 -190
-271 -53 -179 -99 -224 -248 -246 -226 -33 -322 -125 -356 -341 -17 -104 -52
-181 -101 -217 -16 -13 -61 -36 -98 -51 -145 -57 -232 -149 -264 -279 -16 -67
-16 -72 5 -175 l22 -106 -20 -74 c-38 -145 -30 -196 63 -417 l35 -81 -402
-399 -401 -398 -124 -65 c-180 -94 -264 -179 -284 -288 -15 -77 35 -205 129
-328 135 -178 417 -404 609 -490 82 -36 172 -31 261 14 82 41 126 94 184 218
55 117 152 257 285 409 150 172 467 515 476 515 4 0 62 -71 128 -157 177 -235
262 -309 520 -459 96 -56 119 -82 157 -179 23 -60 40 -83 118 -160 116 -115
128 -132 159 -236 32 -104 65 -166 164 -311 88 -130 217 -390 419 -843 75
-170 177 -398 224 -505 l87 -195 106 -3 c59 -1 107 1 107 6 0 21 -418 893
-632 1317 -44 88 -115 211 -157 273 -119 178 -148 231 -171 316 -27 100 -40
126 -100 188 -28 29 -48 53 -46 55 2 2 31 -7 65 -21 33 -14 80 -26 103 -27
l43 -1 -40 -13 c-41 -13 -39 -16 20 -31 l30 -7 -25 -7 -25 -6 24 -13 c34 -19
171 -10 205 13 30 19 35 40 9 32 -10 -2 -49 -7 -88 -10 l-70 -5 47 13 c26 8
77 28 114 45 36 17 72 31 80 31 23 0 161 76 209 116 40 32 113 118 139 162 22
37 -28 0 -124 -92 -111 -107 -202 -166 -256 -166 -15 0 -69 -14 -121 -30 -51
-17 -101 -30 -111 -29 -9 1 1 7 24 14 76 24 174 90 174 117 0 7 -5 7 -13 0
-12 -10 -190 -72 -205 -72 -4 0 18 14 48 31 85 46 106 76 35 49 -14 -5 -52
-16 -85 -24 -64 -14 -83 -5 -27 13 18 6 69 34 113 62 43 27 118 70 165 95 71
37 105 63 195 155 60 60 124 119 142 130 17 12 65 25 105 31 89 12 260 66 370
117 105 49 308 146 371 178 85 43 41 9 -91 -71 -70 -42 -139 -86 -153 -96 -71
-55 99 17 234 99 38 23 71 40 73 37 2 -2 -34 -28 -82 -57 -47 -30 -136 -87
-197 -127 -62 -40 -145 -89 -186 -108 -145 -69 -308 -181 -290 -200 9 -8 64
22 153 86 110 78 177 117 356 208 85 43 182 97 217 121 35 23 66 41 68 38 2
-2 -33 -28 -78 -57 -214 -138 -254 -167 -246 -176 8 -7 143 61 201 103 27 19
51 33 53 31 2 -2 -43 -39 -100 -81 -102 -76 -137 -107 -120 -107 12 0 158 94
222 142 29 23 54 39 57 37 4 -4 -95 -86 -208 -171 -52 -40 -45 -50 15 -19 71
36 185 131 293 243 118 122 119 114 3 -20 -63 -74 -175 -167 -328 -274 -17
-12 -7 -10 32 6 31 13 87 47 124 75 74 56 219 192 277 260 50 60 47 41 -5 -26
-63 -83 -199 -205 -314 -283 -57 -39 -106 -76 -111 -83 -4 -6 5 -4 20 6 49 32
178 112 220 136 23 14 91 75 152 135 70 72 102 99 90 77 -24 -42 -187 -205
-342 -344 -117 -104 -146 -140 -69 -87 25 16 48 30 52 30 3 0 -10 -20 -30 -44
-48 -59 -45 -66 9 -22 54 45 57 37 10 -23 -19 -24 -32 -47 -29 -50 3 -3 13 4
21 17 19 27 38 30 23 2 -8 -15 -1 -46 31 -142 77 -233 184 -440 412 -798 80
-125 274 -400 283 -400 3 0 2 6 -2 13 -11 18 -177 277 -198 310 -37 55 -5 25
52 -51 83 -109 169 -240 237 -359 32 -57 62 -103 67 -103 11 0 -37 87 -167
305 -101 167 -145 248 -145 261 0 8 130 -165 137 -183 3 -7 9 -13 15 -13 5 0
-7 28 -27 63 -60 103 -286 558 -311 625 -41 107 -26 102 32 -13 65 -125 123
-220 130 -212 3 3 -6 25 -20 49 -43 74 -117 251 -111 267 4 10 20 -10 47 -57
23 -39 43 -70 45 -68 2 2 -10 35 -27 74 -31 74 -37 107 -20 117 6 3 10 -3 10
-14 0 -23 160 -341 172 -341 4 0 -14 42 -41 93 -60 114 -124 278 -119 308 2
17 15 1 57 -69 30 -51 58 -92 62 -92 4 0 -10 39 -33 87 -34 74 -78 241 -78
295 0 27 12 -5 25 -65 12 -56 67 -187 79 -187 3 0 -4 25 -15 56 -17 49 -36
154 -52 291 -3 24 -2 45 3 48 4 2 11 -19 14 -48 10 -78 37 -187 45 -187 8 0 4
120 -8 238 -4 40 -4 75 -1 77 3 2 17 -51 29 -118 24 -124 38 -174 46 -165 5 5
-8 157 -21 243 -12 76 8 26 37 -94 16 -67 36 -134 44 -149 l15 -27 -5 35 c-22
136 -40 280 -35 280 3 0 20 -42 39 -93 48 -129 71 -181 76 -175 3 3 -2 24 -10
48 -22 61 -13 60 15 -3 13 -28 44 -95 68 -147 24 -52 54 -122 67 -155 26 -69
91 -212 212 -468 46 -98 83 -183 81 -189 -2 -6 -77 142 -167 328 -90 187 -170
346 -178 354 -12 13 -13 12 -4 -10 48 -124 114 -278 195 -453 92 -199 115
-259 80 -208 -46 65 -354 733 -354 767 0 8 -4 14 -9 14 -6 0 -6 -12 -1 -29 14
-49 139 -357 212 -524 39 -87 67 -161 65 -164 -7 -6 -167 311 -198 390 -37 94
-122 277 -127 273 -2 -3 19 -58 48 -123 29 -65 70 -167 91 -228 87 -252 106
-295 186 -411 43 -63 109 -163 147 -222 78 -122 271 -373 362 -471 50 -53 64
-63 69 -49 5 12 -10 38 -47 85 -108 137 -218 283 -214 283 3 0 73 -76 157
-170 83 -93 155 -170 159 -170 25 0 7 28 -104 166 -220 274 -261 351 -68 129
110 -126 233 -255 244 -255 22 0 -3 38 -113 170 -101 122 -207 255 -253 320
-30 43 61 -51 165 -170 209 -239 243 -274 263 -267 20 8 -1 37 -175 242 -137
161 -252 305 -247 310 2 3 53 -50 114 -117 141 -158 343 -367 365 -379 47 -24
19 20 -84 137 -269 305 -386 444 -374 444 2 0 94 -96 202 -212 235 -252 310
-328 325 -328 25 0 -2 36 -172 231 -207 238 -313 368 -306 374 2 2 62 -59 134
-138 158 -174 395 -417 406 -417 30 0 -9 50 -241 301 -106 116 -271 313 -271
325 0 3 127 -123 283 -280 156 -157 288 -286 294 -286 13 0 123 89 123 100 0
5 -58 63 -130 130 -134 127 -501 510 -680 710 -94 106 -259 307 -372 455 -66
87 -260 382 -318 483 -28 47 -61 123 -75 167 -13 45 -37 98 -52 117 -102 131
-121 161 -133 202 -21 76 -9 138 54 284 61 142 102 284 161 556 52 241 75 311
168 494 l82 163 -1 92 c-1 104 -23 220 -55 281 -30 59 -81 109 -182 178 -114
79 -173 133 -249 227 -34 42 -95 110 -135 152 l-73 75 193 220 c105 121 284
326 397 455 113 129 259 297 325 374 153 180 394 452 432 488 l30 27 59 -15
c81 -20 122 -7 255 80 l103 67 40 -20 c23 -11 94 -59 159 -107 l119 -88 -7
-67 c-10 -104 4 -143 87 -222 82 -81 249 -221 298 -253 63 -40 106 -49 169
-35 177 39 375 188 536 402 124 164 176 272 195 407 18 129 -20 200 -159 294
-42 28 -109 79 -150 114 -121 103 -180 120 -299 89 l-53 -14 -78 58 c-43 33
-101 80 -129 105 l-51 46 2 92 c2 111 -24 207 -78 279 -23 32 -126 115 -327
266 -515 385 -489 369 -724 445 -473 155 -753 206 -1149 212 -132 2 -256 1
-275 -1z m660 -117 c251 -41 431 -86 734 -183 174 -56 158 -46 627 -391 130
-95 246 -184 258 -197 27 -29 37 -87 21 -125 -6 -17 -44 -57 -83 -89 -165
-137 -360 -330 -617 -610 -98 -107 -114 -109 -227 -22 -311 239 -484 361 -565
401 -41 20 -53 21 -93 12 -25 -6 -45 -7 -45 -4 0 12 55 92 169 246 166 224
199 309 155 401 -53 111 -290 251 -552 325 -212 59 -317 74 -537 73 -217 0
-341 -14 -575 -64 -198 -42 -205 -43 -219 -26 -7 8 -10 20 -6 26 11 18 84 51
220 100 186 67 377 113 650 154 17 2 143 3 280 1 209 -3 275 -7 405 -28z
m-892 -382 c10 -10 -3 -10 -158 -6 -113 3 -143 7 -110 12 47 8 259 3 268 -6z
m175 -20 c122 -18 337 -66 337 -76 0 -3 -26 0 -57 7 -84 20 -341 64 -374 64
-15 0 -31 5 -34 10 -8 13 7 13 128 -5z m2299 -862 c-17 -21 -45 -51 -62 -68
-24 -23 -117 -132 -157 -184 -2 -2 -5 -2 -8 1 -3 2 22 45 54 95 40 59 81 107
123 141 35 29 67 52 71 52 5 0 -5 -17 -21 -37z m299 -76 c53 -42 114 -87 134
-101 21 -15 32 -26 24 -26 -16 0 -225 159 -259 197 -30 33 -23 28 101 -70z
m-204 57 c15 -14 80 -65 143 -113 63 -47 118 -90 122 -96 11 -15 -1 -20 -14
-7 -19 19 -30 14 -18 -8 13 -24 33 -26 50 -5 7 8 17 15 22 15 5 0 -32 -46 -84
-102 -51 -57 -113 -127 -137 -156 -24 -28 -46 -50 -49 -48 -2 3 12 35 32 71
19 36 31 65 26 65 -5 0 -26 -20 -47 -45 -20 -25 -41 -45 -45 -45 -10 0 1 29
24 63 34 48 14 51 -30 3 -47 -51 -54 -42 -17 23 14 24 23 47 19 50 -3 3 -26
-16 -51 -42 -25 -27 -47 -46 -49 -44 -2 2 10 29 26 60 17 30 27 58 22 61 -4 3
-26 -17 -47 -44 -22 -27 -40 -48 -42 -46 -2 2 8 29 22 61 14 31 23 60 19 64
-4 3 -8 2 -10 -4 -2 -5 -18 -30 -34 -55 -33 -50 -41 -44 -10 8 25 41 10 42
-24 1 -35 -41 -33 -20 4 38 17 26 30 51 30 55 0 19 -18 5 -55 -42 -21 -27 -41
-48 -43 -46 -2 2 11 32 28 66 41 82 34 96 -15 26 -21 -31 -40 -54 -42 -52 -7
6 63 142 92 179 43 54 114 100 132 85 8 -6 12 -17 9 -25 -4 -10 1 -12 19 -7
21 5 25 3 25 -15 0 -23 7 -26 29 -12 11 7 6 15 -20 40 -19 17 -40 31 -46 31
-15 0 -18 20 -4 20 6 0 23 -12 38 -26z m-1538 -106 c30 -19 115 -80 130 -94 2
-2 -23 -34 -56 -71 -75 -85 -108 -131 -101 -138 6 -6 130 131 158 174 14 21
18 22 38 10 12 -8 22 -17 22 -21 0 -4 -29 -40 -65 -80 -82 -94 -130 -158 -116
-158 12 0 155 160 181 203 17 27 17 27 40 9 l24 -19 -70 -79 c-75 -85 -163
-199 -231 -298 -24 -33 -60 -86 -82 -116 -22 -30 -37 -57 -34 -60 6 -6 163
160 195 205 12 17 -10 1 -47 -35 -38 -36 -64 -58 -59 -50 45 66 170 222 240
300 47 52 89 103 93 113 6 16 9 16 29 -6 l22 -23 -120 -129 c-66 -71 -118
-131 -115 -133 13 -13 203 177 233 235 13 24 14 24 35 6 12 -10 23 -18 25 -19
2 -1 -63 -71 -144 -155 -141 -147 -352 -399 -335 -399 5 0 53 53 108 118 55
64 159 177 231 250 72 73 134 142 137 153 8 24 14 24 44 -2 l24 -19 -59 -63
c-32 -34 -125 -132 -205 -217 -81 -85 -195 -213 -255 -285 -100 -121 -189
-221 -513 -580 -145 -160 -418 -452 -431 -460 -5 -3 -21 -3 -35 1 l-26 6 53
57 c29 31 75 81 101 111 26 30 47 49 47 43 0 -7 -3 -14 -8 -17 -4 -2 -22 -26
-40 -53 l-33 -48 38 44 c21 24 82 94 137 155 54 61 125 145 158 186 33 41 97
113 142 160 45 47 100 108 121 135 44 57 -180 -167 -265 -265 -31 -36 -157
-165 -280 -287 -203 -203 -226 -223 -257 -223 -34 0 -33 2 133 178 165 175
261 289 251 298 -5 5 -273 -274 -383 -399 -57 -64 -82 -85 -142 -114 -41 -19
-75 -33 -77 -31 -2 2 62 78 143 169 236 266 264 304 111 149 -127 -128 -215
-228 -285 -326 -20 -28 -21 -28 -32 -8 -30 56 -27 59 187 285 209 221 269 289
253 289 -9 0 -324 -315 -430 -430 l-50 -55 -7 28 c-6 23 -2 34 22 60 16 18 85
93 152 167 68 74 145 155 172 180 61 57 227 239 241 263 8 16 7 17 -5 10 -15
-8 -380 -381 -535 -546 -72 -77 -72 -77 -82 -52 -9 24 -2 35 90 137 55 61 150
177 212 257 61 80 148 181 191 224 44 43 77 80 74 83 -3 4 -43 -32 -89 -77
-74 -75 -136 -145 -289 -332 -26 -31 -84 -96 -128 -144 -77 -81 -82 -85 -95
-67 -13 17 -12 22 7 44 12 14 35 41 52 60 16 19 5 11 -26 -18 -32 -31 -59 -50
-63 -44 -4 6 73 93 171 194 98 101 234 242 303 313 257 266 587 625 708 770
266 320 365 435 375 435 5 0 26 -10 46 -22z m2131 -62 c0 -3 -26 -21 -57 -40
-112 -69 -152 -125 -55 -76 26 14 52 26 57 28 11 4 -22 -26 -53 -47 -36 -25
-14 -31 34 -10 48 22 73 20 33 -2 -30 -15 -53 -38 -46 -45 2 -3 12 2 20 11 17
17 32 20 22 5 -3 -5 -1 -10 4 -10 6 0 11 4 11 9 0 5 10 11 21 14 17 5 15 0
-12 -24 -19 -17 -27 -29 -19 -26 8 2 26 0 39 -5 23 -8 24 -9 5 -23 -25 -19
-15 -19 31 1 20 8 40 13 43 10 3 -3 0 -6 -6 -6 -7 0 -12 -5 -12 -11 0 -5 5 -7
12 -3 7 4 8 3 4 -4 -4 -6 -13 -9 -20 -6 -7 3 -16 -3 -20 -12 -9 -23 -2 -28 22
-15 43 23 227 81 258 81 18 0 45 -5 61 -12 l28 -12 -30 -3 c-159 -19 -376
-176 -528 -382 -94 -127 -177 -328 -177 -428 0 -18 -3 -33 -6 -33 -8 0 -223
181 -281 236 -38 36 -43 46 -43 85 1 164 308 574 531 707 56 33 129 60 129 48z
m158 -93 c32 -27 69 -56 82 -65 14 -9 20 -17 13 -17 -10 -1 -56 34 -138 103
-16 14 -26 25 -22 26 4 0 34 -21 65 -47z m-118 -97 c0 -3 -4 -8 -10 -11 -5 -3
-10 -1 -10 4 0 6 5 11 10 11 6 0 10 -2 10 -4z m-1029 -93 c13 -16 12 -17 -3
-4 -10 7 -18 15 -18 17 0 8 8 3 21 -13z m-413 -6 c15 -18 64 -168 58 -175 -3
-3 -8 -3 -10 -1 -6 7 -76 172 -76 181 0 12 16 10 28 -5z m-253 -17 c6 -9 -250
-306 -305 -355 -13 -11 -82 -85 -154 -165 -71 -80 -156 -172 -187 -205 -79
-85 -224 -245 -456 -505 -285 -320 -336 -372 -350 -362 -9 6 9 33 65 94 306
337 590 656 860 966 52 59 173 188 271 287 98 99 190 197 205 218 29 38 40 44
51 27z m791 -54 c105 -77 181 -142 173 -150 -4 -5 -228 161 -269 200 -37 35
15 8 96 -50z m-736 -10 c0 -8 -302 -351 -312 -355 -17 -6 7 25 135 171 64 74
126 147 138 161 17 23 39 36 39 23z m-379 -394 c-10 -18 -106 -130 -261 -302
-47 -52 -180 -205 -295 -340 -229 -266 -471 -530 -487 -530 -13 0 34 58 122
150 39 41 104 113 143 160 40 47 119 139 176 205 58 66 130 149 160 185 170
199 436 490 449 490 1 0 -2 -8 -7 -18z m-173 -310 c-57 -65 -179 -207 -273
-314 -93 -108 -172 -194 -174 -192 -7 7 532 624 545 624 3 0 -42 -53 -98 -118z
m-1921 -356 c70 -32 109 -64 54 -45 -53 19 -45 4 19 -35 33 -21 60 -38 60 -40
0 -1 -27 6 -60 17 -43 14 -64 17 -72 9 -7 -7 -2 -15 18 -25 52 -27 112 -100
147 -177 37 -79 117 -309 117 -334 0 -34 -31 -49 -335 -161 -82 -30 -172 -69
-199 -85 -27 -17 -50 -29 -51 -28 -5 6 -109 226 -140 298 -18 41 -58 118 -90
170 -53 90 -56 98 -51 145 l6 50 -17 -30 c-10 -18 -17 -54 -17 -91 l-1 -61
-50 24 c-27 12 -67 23 -88 23 l-39 0 31 38 c18 20 53 69 80 107 71 103 95 123
175 147 39 11 94 32 121 46 129 65 156 73 240 69 61 -3 95 -10 142 -31z m-936
-435 c103 -6 154 -14 205 -32 100 -35 129 -69 189 -219 27 -69 79 -172 114
-230 63 -103 64 -106 66 -181 2 -94 36 -171 120 -274 98 -120 106 -171 37
-247 -62 -69 -256 -198 -296 -198 -12 0 -16 -5 -12 -16 5 -12 1 -14 -17 -8
-96 29 -320 293 -484 569 -42 72 -102 161 -132 199 -96 118 -101 126 -101 178
0 57 36 144 86 204 35 44 182 148 241 173 46 19 32 30 -24 20 -130 -24 -272
-135 -313 -244 -27 -71 -35 -153 -22 -212 5 -24 9 -43 7 -43 -2 0 -22 9 -46
20 -60 27 -141 26 -186 -1 -19 -12 -33 -23 -31 -24 2 -2 42 -12 91 -24 150
-36 187 -63 280 -212 70 -112 151 -219 316 -414 166 -196 201 -247 200 -289 0
-28 -1 -29 -12 -13 -32 49 -33 50 -29 16 2 -24 -4 -45 -20 -69 -33 -49 -140
-133 -226 -177 -48 -25 -70 -43 -67 -52 9 -23 -65 -3 -102 27 -354 296 -411
349 -493 456 -39 52 -104 124 -146 161 -41 37 -83 84 -94 104 -23 43 -25 31
-6 -32 8 -26 10 -47 5 -47 -5 0 -26 16 -48 35 -49 45 -56 44 -29 -2 16 -26 18
-35 8 -31 -101 38 -119 42 -146 29 -27 -12 -27 -12 -8 -30 10 -11 69 -36 129
-57 l110 -38 155 -151 c85 -83 209 -194 275 -247 116 -92 153 -135 169 -198 7
-23 6 -24 -8 -7 -15 20 -20 16 -30 -25 -9 -37 -160 -190 -215 -218 -28 -14
-56 -20 -77 -18 -42 5 -43 -3 -1 -35 17 -13 59 -50 92 -81 126 -119 266 -196
355 -196 66 0 200 100 200 149 0 20 -58 98 -104 140 -14 14 -26 19 -26 12 0
-7 -32 -43 -71 -80 l-72 -68 37 -34 c21 -19 51 -41 67 -51 18 -10 26 -19 19
-23 -13 -8 -40 9 -105 69 l-50 46 93 88 94 88 60 -65 c84 -92 93 -112 72 -157
-20 -42 -81 -96 -143 -126 -128 -62 -297 -10 -486 149 -83 70 -131 130 -145
183 -11 39 -11 40 -35 24 -68 -44 -274 87 -360 230 -22 36 -44 66 -49 66 -4 0
-6 -6 -3 -12 29 -80 9 -76 -48 9 -22 33 -46 68 -53 79 -11 16 -12 11 -8 -36
l5 -55 -40 45 c-38 43 -39 44 -29 14 6 -17 33 -59 60 -93 28 -33 46 -61 42
-61 -19 0 -103 64 -130 98 -16 20 -42 62 -58 92 -33 65 -44 48 -20 -34 19 -64
66 -129 123 -171 23 -16 42 -33 42 -36 2 -12 -87 8 -141 34 -41 18 -58 22 -58
13 0 -17 78 -89 120 -111 l33 -17 -46 -46 c-44 -44 -47 -45 -65 -29 -24 21
-76 128 -92 185 -9 37 -8 52 9 105 35 105 48 347 20 347 -5 0 -9 23 -9 52 0
104 79 203 187 234 88 25 126 48 177 106 69 78 96 143 107 254 9 102 22 135
66 175 51 48 92 62 201 70 118 9 140 19 231 110 65 66 95 127 116 239 17 92
40 134 91 169 54 38 104 52 159 46 28 -3 111 -9 186 -14z m1855 -122 c118 -60
160 -227 105 -416 -5 -18 -7 -33 -5 -33 13 0 56 116 61 165 3 30 10 52 15 49
10 -7 1 -121 -17 -191 -7 -29 -10 -53 -6 -53 14 0 52 94 58 143 11 92 22 24
13 -78 -6 -54 -8 -101 -5 -103 7 -7 25 46 36 102 5 27 11 52 14 54 3 3 5 -41
5 -98 0 -115 14 -126 30 -25 5 32 12 60 15 63 3 3 5 -45 5 -107 0 -115 13
-143 25 -53 11 87 22 93 29 17 4 -38 12 -81 19 -95 11 -23 12 -20 17 35 l6 60
8 -50 c11 -74 35 -153 47 -161 7 -4 9 0 6 12 -11 35 -27 137 -23 141 2 3 9
-13 16 -34 14 -42 101 -196 107 -189 3 2 -11 41 -31 87 -40 91 -41 113 -4 47
73 -127 98 -162 98 -137 0 13 -16 53 -35 88 -19 36 -33 66 -32 68 2 2 20 -21
41 -49 42 -61 116 -145 116 -132 0 5 -16 38 -35 73 -19 36 -33 66 -31 68 6 6
111 -127 129 -163 23 -44 32 -144 17 -188 -15 -45 -32 -58 -19 -14 12 43 12
95 -1 103 -6 4 -10 -7 -10 -25 0 -39 -22 -82 -56 -109 -35 -27 -42 -20 -15 15
11 15 21 35 21 46 0 17 -4 16 -29 -10 -41 -41 -89 -51 -296 -63 -99 -5 -184
-14 -189 -19 -18 -18 83 -32 236 -34 87 0 158 -2 158 -3 0 -4 -112 -24 -171
-31 l-64 -8 50 -17 c28 -10 78 -21 112 -24 37 -3 60 -10 56 -16 -5 -9 -125 -3
-168 10 -38 10 -1 -13 50 -32 50 -19 50 -19 20 -25 l-30 -7 30 -7 c17 -4 44
-14 60 -22 l30 -15 -44 6 c-113 15 -427 138 -438 172 -2 6 10 13 27 17 44 8
28 26 -24 26 -49 0 -159 35 -177 56 -9 12 -6 14 23 14 56 0 202 28 260 50 50
19 175 106 165 116 -2 3 -38 -9 -78 -25 -69 -28 -159 -53 -159 -45 0 1 24 19
53 38 58 39 104 83 95 92 -4 3 -17 0 -30 -8 -12 -7 -30 -13 -38 -13 -8 -1 -45
-15 -82 -33 -69 -32 -139 -55 -146 -47 -2 2 11 11 30 20 57 30 138 95 168 137
41 57 37 66 -7 18 -36 -40 -94 -82 -65 -48 14 18 64 159 58 165 -2 3 -18 -23
-36 -56 -39 -73 -104 -143 -160 -171 -62 -31 -69 -19 -11 18 96 63 168 174
159 249 -3 24 -6 20 -28 -34 -38 -95 -63 -123 -34 -37 23 67 33 178 15 158 -5
-5 -20 -45 -35 -90 -33 -101 -73 -164 -127 -204 -38 -27 -69 -38 -69 -25 0 3
16 27 36 55 66 93 109 268 69 284 -10 4 -26 -18 -55 -77 -39 -81 -97 -163
-108 -153 -2 3 0 12 7 19 13 17 53 129 47 134 -2 3 -19 -24 -37 -58 -18 -34
-53 -83 -77 -108 l-43 -46 30 46 c34 53 83 159 73 159 -4 0 -23 -28 -42 -62
-19 -33 -61 -88 -93 -122 l-59 -61 35 50 c19 28 42 65 51 83 20 39 16 69 -4
32 -17 -32 -129 -149 -155 -162 -16 -8 -14 -4 6 18 39 42 79 104 79 122 0 9
-16 -3 -37 -27 -41 -49 -129 -121 -146 -121 -6 0 14 26 46 58 31 32 57 61 57
65 0 4 -23 -11 -52 -33 -47 -38 -118 -80 -134 -80 -3 0 17 22 45 48 28 26 51
54 51 62 0 9 -8 6 -24 -9 -36 -34 -151 -71 -218 -71 -65 0 -158 27 -221 63
-124 73 -204 233 -164 329 21 50 72 77 274 148 206 72 201 70 453 190 113 54
225 106 250 114 62 22 146 16 206 -15z m782 -804 c48 -54 62 -89 67 -163 5
-69 -5 -53 -19 30 -4 21 -30 69 -61 113 -54 75 -46 88 13 20z m-1413 -5 c-7
-11 -79 -50 -92 -50 -7 0 86 58 95 59 2 1 0 -4 -3 -9z m-179 -291 l38 -61 19
37 c10 20 21 34 24 31 3 -3 -4 -21 -15 -41 -12 -19 -19 -42 -15 -51 4 -12 17
-4 59 37 29 29 56 51 59 48 2 -3 -21 -34 -53 -69 l-58 -63 -46 79 c-63 111
-72 127 -59 120 5 -4 27 -34 47 -67z m670 -108 c33 -11 91 -33 129 -49 272
-114 373 -155 463 -188 56 -21 102 -41 102 -46 0 -12 -48 -2 -130 28 -35 13
-66 21 -68 19 -6 -5 81 -53 111 -60 36 -9 45 -25 14 -25 -29 0 -115 16 -141
26 -13 5 -17 4 -12 -4 3 -6 46 -26 93 -44 48 -18 79 -34 69 -36 -21 -4 -167
40 -243 73 -108 48 -37 -18 118 -110 51 -30 99 -55 106 -55 7 0 13 -5 13 -11
0 -21 -50 2 -297 134 -170 91 -241 114 -173 57 19 -17 108 -80 197 -140 89
-61 165 -115 168 -120 3 -6 -4 -10 -16 -10 -31 0 -13 -14 39 -30 23 -7 42 -18
42 -23 0 -13 -116 -2 -187 17 -29 8 -53 10 -53 6 0 -11 93 -63 155 -86 59 -22
37 -32 -34 -15 -79 20 -154 53 -216 96 -118 81 -195 123 -195 105 0 -17 226
-163 375 -242 80 -42 86 -47 58 -48 -18 0 -74 13 -125 30 -51 16 -94 28 -95
26 -5 -5 96 -71 140 -92 20 -10 37 -21 37 -26 0 -14 -32 -9 -115 17 -130 40
-114 15 40 -61 50 -24 86 -44 80 -45 -29 -3 -69 5 -157 32 -115 35 -127 36
-103 8 16 -17 119 -71 205 -107 l25 -11 -27 0 c-15 -1 -91 19 -169 44 -78 25
-144 44 -146 41 -8 -7 85 -66 150 -95 121 -54 117 -52 72 -46 -58 9 -158 42
-254 87 -46 21 -86 36 -88 34 -2 -2 15 -20 38 -39 57 -49 190 -114 277 -135
78 -18 99 -38 30 -27 -83 13 -156 34 -283 84 -71 28 -131 49 -133 47 -6 -7
108 -81 175 -115 89 -45 204 -81 257 -81 28 0 46 -5 46 -11 0 -35 -227 20
-473 115 -82 31 -84 18 -7 -35 71 -49 159 -92 245 -121 48 -16 63 -24 47 -26
-31 -5 -147 30 -331 100 -174 66 -202 71 -153 29 73 -62 293 -164 437 -201 64
-17 67 -18 30 -19 -93 -2 -202 32 -430 131 -198 86 -197 85 -160 53 39 -33
183 -124 264 -165 35 -17 61 -33 59 -36 -11 -10 -144 43 -265 107 -73 38 -133
67 -133 64 0 -9 161 -125 204 -147 23 -12 36 -23 30 -25 -14 -5 -139 49 -205
87 -49 29 -50 30 -44 8 11 -34 42 -64 120 -115 92 -61 196 -108 273 -124 138
-29 33 -35 -218 -13 -83 7 -72 -8 31 -42 l74 -25 -105 6 c-123 7 -125 -4 -6
-35 108 -27 277 -27 406 1 156 33 156 33 144 20 -17 -18 -137 -57 -256 -83
-60 -13 -108 -26 -108 -29 0 -16 225 30 375 76 27 8 45 11 39 5 -14 -14 -206
-85 -299 -111 -44 -12 -101 -32 -128 -45 -71 -37 -209 -80 -325 -103 -57 -12
-113 -26 -125 -32 -24 -13 -120 -81 -181 -129 -21 -16 -44 -30 -50 -30 -7 0
-23 -11 -36 -25 -39 -41 -42 -28 -6 28 61 95 145 282 132 294 -3 3 -21 -27
-41 -67 -20 -40 -38 -70 -41 -67 -3 2 4 31 14 63 11 33 23 75 27 94 6 32 6 33
-7 15 -8 -11 -34 -63 -58 -115 -61 -133 -120 -219 -199 -292 -64 -59 -166
-126 -177 -115 -2 2 31 33 75 69 101 82 160 152 206 242 34 66 34 69 8 37
-133 -164 -241 -255 -400 -335 -76 -38 -78 -32 -4 14 98 63 196 145 251 211
27 33 50 63 50 66 0 3 -26 -18 -57 -48 -77 -73 -199 -162 -281 -205 -63 -33
-65 -34 -32 -7 89 73 190 165 190 175 0 6 -19 -5 -42 -24 -52 -43 -213 -148
-225 -148 -4 1 28 35 72 76 90 85 84 85 -28 1 -43 -33 -81 -56 -84 -54 -3 3 6
21 20 39 13 18 28 44 32 58 6 20 -1 15 -35 -23 -47 -53 -72 -54 -40 -1 27 46
25 53 -5 24 -14 -13 -26 -22 -28 -19 -13 17 -67 153 -72 182 -12 62 -25 41
-20 -30 l5 -68 -15 60 c-8 33 -14 77 -15 98 0 20 -4 37 -10 37 -15 0 -12 -112
5 -160 8 -24 13 -45 11 -47 -6 -6 -52 94 -67 147 l-14 45 -3 -38 c-2 -21 4
-61 12 -90 8 -28 13 -53 11 -55 -12 -12 -85 150 -85 189 0 11 -5 19 -11 19
-16 0 -3 -88 21 -153 24 -62 20 -70 -10 -20 -36 62 -60 131 -67 195 -4 37 -9
54 -14 46 -17 -26 -10 -115 15 -198 8 -24 8 -24 -8 -5 -26 33 -56 143 -56 208
0 45 -3 58 -11 50 -13 -13 -17 -135 -6 -178 7 -28 6 -29 -7 -11 -25 31 -38
121 -32 214 l6 87 -16 -40 c-10 -24 -17 -72 -18 -122 -1 -54 -4 -78 -11 -72
-19 18 -10 189 13 254 11 33 19 61 17 64 -10 10 -66 -131 -72 -179 -5 -44 -8
-49 -14 -31 -11 29 6 147 30 211 21 56 51 99 120 173 42 46 45 47 101 47 79 0
170 30 260 86 41 25 79 48 83 51 17 10 -15 -39 -50 -78 -54 -60 -29 -47 69 36
48 42 88 72 88 67 0 -18 -43 -139 -80 -224 -21 -49 -33 -87 -27 -85 13 4 49
71 107 201 22 49 42 87 44 85 5 -4 -56 -184 -93 -276 -11 -29 -19 -53 -16 -53
6 0 76 141 106 213 40 100 32 47 -16 -98 -25 -76 -43 -140 -40 -143 4 -5 66
125 80 168 4 12 9 19 12 17 2 -3 -9 -43 -26 -91 -36 -100 -84 -276 -78 -282 6
-6 38 68 132 307 62 158 85 229 85 261 0 56 27 93 77 107 44 12 57 4 75 -47
l13 -37 5 40 6 40 13 -45 c21 -73 107 -241 156 -303 43 -53 138 -127 166 -127
6 0 -6 19 -28 43 -88 95 -145 202 -188 351 -29 103 -31 161 -9 237 19 62 22
59 48 -62 29 -133 129 -281 243 -360 23 -16 44 -29 48 -29 3 0 -17 30 -45 66
-59 77 -90 135 -119 223 -22 67 -28 115 -9 71 20 -45 72 -130 80 -130 5 0 -4
24 -18 52 -37 73 -64 155 -63 192 0 30 1 30 13 -9 16 -51 41 -99 79 -152 43
-60 44 -47 3 23 -47 80 -88 205 -84 257 l3 42 14 -60 c14 -62 69 -185 83 -185
5 0 0 17 -11 38 -31 61 -51 142 -51 205 0 73 6 70 21 -9 10 -54 36 -120 44
-112 2 2 -3 30 -11 63 -7 33 -13 89 -13 125 l1 65 13 -65 c15 -77 43 -150 57
-150 6 0 7 8 3 18 -18 47 -36 162 -31 205 9 81 21 80 21 -4 0 -43 5 -83 10
-88 7 -7 10 27 10 94 0 67 5 109 13 117 9 9 10 0 5 -39 -3 -28 -2 -68 3 -90 7
-32 9 -24 14 62 8 130 23 157 31 55 5 -67 24 -139 33 -129 2 2 -3 41 -11 87
-19 101 -11 136 46 200 l38 43 12 -55 c7 -31 17 -56 22 -56 6 0 8 3 6 8 -3 4
-8 34 -11 68 -4 44 -2 65 8 80 14 18 15 18 21 -11 9 -37 46 -115 55 -115 4 0
-1 24 -11 53 -23 65 -24 95 -3 119 16 17 18 16 44 -25 26 -41 70 -87 70 -73 0
3 -13 30 -30 59 -27 48 -39 97 -25 97 3 0 20 -17 38 -37 36 -41 147 -126 155
-118 3 2 -27 38 -67 80 -39 41 -71 82 -71 91 0 11 10 5 33 -17 36 -37 148
-112 155 -104 3 2 -29 41 -72 85 -42 44 -76 87 -76 95 0 20 6 19 31 -6 25 -25
39 -17 16 9 -25 28 -21 39 21 50 55 15 73 14 138 -7z m-747 -106 c72 -126 71
-146 -15 -235 -67 -70 -163 -130 -205 -130 -44 1 -104 36 -156 94 -97 105 -97
122 -1 29 95 -92 96 -93 146 -93 41 0 60 7 110 40 63 42 126 105 144 145 9 20
3 40 -41 133 -75 161 -68 168 18 17z m-83 -24 c-13 -21 -216 -169 -221 -161
-6 10 206 179 218 173 4 -2 5 -8 3 -12z m-61 -128 l18 -28 -21 19 c-12 11 -22
23 -22 28 0 14 7 9 25 -19z m73 -48 c-3 -3 -9 2 -12 12 -6 14 -5 15 5 6 7 -7
10 -15 7 -18z m-29 -29 c-3 -3 -11 5 -18 17 -13 21 -12 21 5 5 10 -10 16 -20
13 -22z m-140 -33 c18 -24 28 -43 23 -43 -9 0 -20 15 -59 78 -21 34 -6 20 36
-35z m-174 -210 c29 -60 -8 -119 -123 -197 -80 -55 -143 -77 -188 -64 -35 9
-203 151 -272 231 l-46 52 55 -51 c143 -133 252 -214 289 -214 61 0 248 128
270 184 9 25 -7 60 -62 132 -21 28 -38 55 -38 60 1 15 98 -98 115 -133z m-125
88 c0 -11 -77 -80 -137 -124 -24 -17 -43 -33 -43 -36 0 -4 20 -29 45 -58 25
-28 45 -54 45 -57 0 -17 -20 -1 -49 40 -18 25 -42 53 -53 63 -19 19 -18 20 79
99 97 80 113 90 113 73z m-59 -118 c13 -16 12 -17 -3 -4 -17 13 -22 21 -14 21
2 0 10 -8 17 -17z m-36 -63 c10 -11 13 -20 7 -20 -6 0 -16 9 -22 20 -6 11 -9
20 -7 20 2 0 12 -9 22 -20z m-1480 -60 c11 -18 -32 -66 -328 -367 -161 -164
-350 -370 -441 -478 -175 -210 -192 -233 -182 -242 10 -10 109 99 280 307 83
101 241 277 351 390 110 113 234 244 276 291 61 66 80 81 89 72 13 -12 -84
-123 -380 -428 -151 -155 -225 -240 -352 -400 -52 -67 -125 -154 -161 -195
-37 -40 -67 -78 -67 -84 0 -16 149 140 335 349 88 99 214 239 280 310 66 72
174 191 239 265 66 74 125 142 133 150 11 12 15 12 29 -2 15 -15 8 -25 -87
-132 -57 -64 -106 -122 -107 -129 -4 -12 93 84 182 181 45 50 76 62 76 30 0
-7 -66 -83 -147 -168 -198 -210 -198 -210 -186 -210 19 0 137 116 247 243 108
124 109 125 133 110 l24 -16 -68 -71 c-257 -268 -336 -353 -346 -371 -21 -40
78 53 229 212 83 88 160 173 172 188 15 19 27 25 42 20 11 -3 20 -10 20 -14 0
-5 -26 -37 -57 -72 -96 -106 -101 -119 -11 -27 82 84 86 87 107 72 21 -15 21
-16 -45 -87 -37 -40 -105 -121 -153 -181 -47 -60 -163 -202 -257 -316 -93
-114 -192 -235 -219 -271 -27 -35 -103 -130 -170 -210 -66 -80 -160 -198 -210
-261 -49 -64 -95 -117 -102 -117 -33 -2 -16 30 74 142 54 67 122 155 152 196
61 86 396 511 483 615 32 38 56 71 54 73 -7 8 -104 -102 -249 -282 -80 -99
-208 -250 -284 -337 -107 -120 -262 -306 -289 -346 -1 -2 -42 31 -91 72 -163
141 -386 286 -440 286 -24 0 -13 23 27 62 23 21 85 59 138 85 53 25 117 59
142 76 25 17 221 207 435 422 215 216 445 445 512 509 107 103 124 116 142
107 11 -6 23 -16 26 -21z m1520 1 c3 -5 1 -12 -5 -16 -5 -3 -10 1 -10 9 0 18
6 21 15 7z m-471 -107 c3 -8 2 -12 -4 -9 -6 3 -10 10 -10 16 0 14 7 11 14 -7z
m77 -66 c31 -44 15 -33 -22 15 -19 23 -26 36 -16 28 10 -8 27 -27 38 -43z
m-105 11 c19 -22 19 -22 -3 -8 -13 8 -23 17 -23 21 0 12 6 9 26 -13z m34 -49
c6 -11 8 -20 6 -20 -3 0 -10 9 -16 20 -6 11 -8 20 -6 20 3 0 10 -9 16 -20z
m-80 -10 c0 -5 -2 -10 -4 -10 -3 0 -8 5 -11 10 -3 6 -1 10 4 10 6 0 11 -4 11
-10z m140 2 c0 -5 -11 -19 -25 -32 -14 -13 -25 -18 -25 -12 0 6 9 16 20 22 11
6 18 15 15 21 -4 5 -1 9 4 9 6 0 11 -4 11 -8z m-731 -46 c10 -12 -3 -32 -66
-108 -44 -51 -127 -156 -185 -233 -100 -132 -405 -471 -415 -461 -13 13 238
346 427 566 41 48 104 124 140 168 36 44 70 81 76 81 6 1 17 -5 23 -13z m50
-73 c-81 -95 -224 -255 -254 -283 l-38 -35 19 33 c10 19 66 91 123 160 57 70
110 137 119 150 13 21 17 22 30 8 14 -14 14 -17 1 -33z m61 -21 c0 -12 -289
-347 -460 -532 -156 -168 -217 -239 -355 -410 -60 -74 -132 -162 -160 -195
-29 -33 -87 -107 -131 -164 -99 -130 -100 -131 -108 -131 -16 0 -1 30 61 114
134 184 450 563 632 757 162 174 284 311 458 517 41 48 63 64 63 44z m19 -104
c-74 -90 -202 -228 -207 -223 -6 6 113 153 185 228 31 32 58 56 61 53 2 -3
-15 -29 -39 -58z m-376 -430 c-32 -35 -85 -90 -116 -123 -31 -33 -57 -55 -57
-50 0 14 221 247 228 241 2 -3 -22 -34 -55 -68z m3117 -192 c0 -2 -19 -19 -42
-37 l-43 -33 34 37 c31 33 51 46 51 33z m202 -83 c-32 -39 -154 -160 -207
-203 -16 -14 26 34 95 107 122 128 172 171 112 96z m-3793 -30 c-8 -10 -39
-46 -71 -80 -77 -85 -219 -261 -296 -368 -46 -64 -66 -85 -74 -77 -12 12 41
86 186 262 89 108 317 343 255 263z m3762 -70 c-26 -37 -97 -114 -80 -88 22
32 90 115 96 115 2 0 -5 -12 -16 -27z m-2241 -108 c0 -5 -5 -3 -10 5 -5 8 -10
20 -10 25 0 6 5 3 10 -5 5 -8 10 -19 10 -25z m2190 -8 c0 -2 -10 -12 -22 -23
l-23 -19 19 23 c18 21 26 27 26 19z m-4530 -204 c0 -10 -40 21 -75 58 l-40 42
58 -48 c31 -27 57 -50 57 -52z m99 -188 c51 -44 103 -88 115 -98 19 -17 19
-17 1 -8 -32 15 -242 198 -340 295 l-90 89 110 -100 c61 -54 152 -135 204
-178z m-115 149 c101 -89 204 -188 166 -158 -44 34 -310 276 -310 282 0 3 12
-5 28 -19 15 -14 67 -61 116 -105z m31 -133 c55 -51 87 -85 70 -73 -16 11 -84
73 -150 137 -66 65 -97 98 -70 74 28 -24 95 -86 150 -138z m141 37 c72 -73
145 -155 164 -183 39 -60 36 -56 -65 60 -43 50 -117 127 -164 172 -47 45 -81
82 -76 83 6 0 69 -60 141 -132z m2684 84 c0 -8 -63 -42 -78 -42 -6 0 68 49 76
50 1 0 2 -4 2 -8z m-2211 -64 c-9 -18 -88 -136 -106 -157 -1 -2 -6 -1 -10 2
-3 4 11 33 33 64 64 93 111 145 83 91z m3961 -75 c0 -14 -41 -75 -46 -70 -3 3
5 21 18 41 24 37 28 41 28 29z m44 -50 c-14 -32 -30 -70 -36 -85 -11 -30 -31
-40 -21 -10 16 48 67 152 74 152 5 0 -3 -26 -17 -57z m54 -15 c-3 -7 -15 -43
-27 -80 -23 -68 -41 -95 -41 -61 0 25 53 153 64 153 4 0 6 -6 4 -12z m858
-805 c-2 -2 -20 24 -39 59 -60 108 -317 644 -316 659 0 8 82 -150 180 -350 99
-200 178 -365 175 -368z m-286 657 c6 -11 8 -20 6 -20 -3 0 -10 9 -16 20 -6
11 -8 20 -6 20 3 0 10 -9 16 -20z m45 -66 c9 -15 12 -23 6 -20 -11 7 -35 46
-28 46 3 0 12 -12 22 -26z m103 -81 c54 -87 106 -191 80 -161 -23 28 -123 208
-115 208 3 0 18 -21 35 -47z m128 -765 c8 -16 12 -28 9 -28 -8 0 -125 181
-125 194 0 11 89 -116 116 -166z"/>
<path d="M6348 9353 c7 -3 16 -2 19 1 4 3 -2 6 -13 5 -11 0 -14 -3 -6 -6z"/>
<path d="M6538 9333 c7 -3 16 -2 19 1 4 3 -2 6 -13 5 -11 0 -14 -3 -6 -6z"/>
<path d="M6609 9314 c18 -8 36 -13 39 -10 6 6 -43 26 -61 25 -7 0 3 -7 22 -15z"/>
<path d="M6418 9293 c6 -2 18 -2 25 0 6 3 1 5 -13 5 -14 0 -19 -2 -12 -5z"/>
<path d="M6525 9293 c6 -5 37 -17 71 -26 83 -22 431 -174 580 -253 67 -35 125
-64 128 -64 3 0 6 6 6 14 0 8 -44 36 -97 64 -110 56 -544 234 -613 252 -25 6
-54 14 -65 17 -13 3 -16 2 -10 -4z"/>
<path d="M6895 9290 c11 -5 89 -37 174 -70 85 -34 189 -79 231 -100 72 -36
105 -43 160 -31 2 1 -11 12 -31 25 -73 50 -299 132 -481 175 -55 13 -81 13
-53 1z"/>
<path d="M6780 9280 c8 -5 22 -9 30 -9 10 0 8 3 -5 9 -27 12 -43 12 -25 0z"/>
<path d="M6950 9221 c69 -26 188 -77 265 -113 161 -75 185 -84 185 -68 0 18
-255 136 -401 185 -179 59 -207 57 -49 -4z"/>
<path d="M6806 9241 c6 -6 73 -38 150 -70 76 -32 195 -86 263 -120 116 -59
142 -67 126 -41 -12 19 -237 127 -375 178 -187 70 -177 67 -164 53z"/>
<path d="M6650 9201 c8 -5 65 -30 127 -55 130 -53 348 -161 413 -205 46 -32
85 -41 78 -18 -9 28 -570 288 -619 287 -11 -1 -11 -3 1 -9z"/>
<path d="M7560 9045 c0 -3 11 -23 25 -45 26 -42 22 -54 -8 -20 -33 39 -38 20
-6 -21 27 -34 29 -40 11 -30 -12 6 -22 16 -22 21 0 5 -13 15 -29 23 -26 13
-30 13 -36 -1 -10 -26 108 -134 317 -290 86 -64 139 -112 97 -87 -27 16 -214
158 -224 170 -17 20 -227 165 -239 165 -6 0 3 -11 19 -25 17 -13 25 -24 18
-25 -6 0 -15 5 -18 11 -4 6 -13 8 -21 5 -7 -3 -16 -1 -19 5 -4 5 -11 7 -16 4
-5 -4 22 -34 61 -67 66 -57 86 -79 58 -62 -7 5 -40 25 -72 46 -56 36 -96 48
-96 29 0 -15 103 -93 300 -226 106 -71 209 -145 229 -164 43 -40 38 -37 -163
103 -189 130 -389 257 -396 250 -2 -3 30 -39 73 -81 82 -80 99 -105 32 -47
-22 19 -62 49 -88 66 -42 27 -50 29 -63 16 -17 -17 -22 -10 117 -144 107 -104
492 -424 509 -424 4 0 17 15 29 33 11 17 21 26 21 18 0 -11 3 -11 15 -1 8 7
15 21 15 32 0 16 3 18 13 9 21 -17 55 23 37 44 -14 17 -7 19 20 5 15 -8 35 3
107 58 70 54 91 75 101 107 9 29 10 46 2 64 -11 27 -195 157 -217 155 -7 -1
-11 2 -8 6 3 4 -26 27 -63 52 -37 24 -112 76 -167 114 -55 39 -116 79 -135 90
-19 10 -42 24 -50 29 -21 15 -70 36 -70 30z m158 -131 c-3 -14 -5 -12 -10 9
-3 19 -2 25 4 19 6 -6 8 -18 6 -28z m12 -90 c0 -9 -69 39 -91 63 -16 17 -5 12
34 -17 31 -23 57 -44 57 -46z m-108 -102 c2 -4 53 -46 113 -94 61 -47 124
-101 140 -118 17 -18 -39 22 -122 90 -84 67 -153 124 -153 126 0 7 18 4 22 -4z
m193 -102 c68 -46 96 -70 80 -70 -3 0 -23 13 -43 28 -20 16 -57 43 -81 60 -72
51 -37 37 44 -18z m-144 -127 c13 -16 12 -17 -3 -4 -10 7 -18 15 -18 17 0 8 8
3 21 -13z m147 -107 c50 -38 92 -73 92 -78 0 -9 -191 134 -211 159 -17 21 -17
21 119 -81z m257 20 c6 -4 1 -4 -10 2 -11 6 -29 21 -40 34 -19 22 -19 22 10
-2 17 -14 35 -29 40 -34z"/>
<path d="M7090 8933 c57 -50 84 -68 79 -56 -6 16 -99 93 -111 93 -7 0 8 -17
32 -37z"/>
<path d="M7185 8905 c17 -13 35 -24 40 -24 6 0 -3 11 -20 24 -16 14 -34 25
-40 25 -5 0 4 -11 20 -25z"/>
<path d="M7240 8722 c0 -20 184 -162 195 -150 5 4 -123 113 -167 142 -16 10
-28 14 -28 8z"/>
<path d="M7200 8671 c0 -5 15 -20 33 -32 84 -60 229 -183 237 -203 9 -25 45
-56 223 -190 71 -53 136 -96 145 -95 12 0 7 8 -17 27 -18 15 -63 52 -100 83
-36 30 -111 89 -166 131 -105 80 -177 148 -157 148 6 0 52 -34 101 -75 232
-193 370 -299 378 -291 4 4 -9 22 -28 42 -46 48 -366 289 -427 322 -27 15 -79
48 -116 74 -81 58 -106 72 -106 59z"/>
<path d="M7170 8627 c0 -6 162 -131 205 -158 127 -81 109 -59 -49 60 -115 87
-156 113 -156 98z"/>
<path d="M7150 8571 c0 -7 104 -81 150 -106 22 -12 13 -4 -64 59 -67 55 -86
65 -86 47z"/>
<path d="M7120 8526 c0 -3 24 -18 53 -35 29 -16 63 -41 76 -55 29 -31 53 -35
26 -5 -36 38 -155 112 -155 95z"/>
<path d="M7129 8459 c24 -17 45 -28 48 -26 5 6 -67 57 -81 57 -5 0 10 -14 33
-31z"/>
<path d="M7060 8443 c0 -4 38 -33 85 -63 47 -30 174 -123 283 -207 108 -84
211 -160 229 -170 43 -23 56 -7 18 23 -61 50 -365 266 -432 305 -37 23 -88 56
-113 74 -59 42 -70 48 -70 38z"/>
<path d="M7430 8399 c37 -34 278 -225 351 -278 13 -9 23 -11 30 -4 11 11 -294
246 -396 306 -23 14 -20 8 15 -24z"/>
<path d="M7030 8406 c0 -10 504 -394 570 -435 41 -24 50 -26 50 -8 0 8 -84 74
-187 147 -104 73 -241 171 -305 216 -109 78 -128 90 -128 80z"/>
<path d="M7224 8401 c5 -7 38 -32 75 -55 37 -24 136 -99 220 -167 165 -133
202 -161 210 -153 3 2 -11 18 -30 34 l-34 30 39 -20 c21 -12 41 -19 44 -15 7
6 16 -1 -98 76 -52 36 -146 101 -209 145 -63 43 -118 78 -123 76 -6 -1 -24 8
-42 21 -46 35 -61 42 -52 28z"/>
<path d="M7395 8364 c87 -82 291 -240 373 -288 7 -4 12 -2 12 7 0 13 -217 180
-365 281 l-70 48 50 -48z"/>
<path d="M6980 8351 c0 -5 34 -32 75 -59 86 -59 268 -200 409 -319 54 -46 103
-83 108 -83 10 0 -9 40 -20 40 -4 1 -29 22 -57 47 -52 48 -44 45 49 -21 30
-21 60 -36 66 -34 6 2 -6 15 -27 29 -51 33 -293 199 -418 285 -149 103 -185
125 -185 115z"/>
<path d="M6984 8278 c16 -13 74 -59 129 -103 141 -113 389 -304 410 -316 13
-7 17 -6 17 5 0 18 -536 425 -572 434 -7 1 0 -8 16 -20z"/>
<path d="M7009 8184 c56 -41 101 -80 101 -84 0 -9 196 -162 298 -232 56 -39
85 -48 76 -24 -8 21 -541 416 -562 416 -8 0 32 -34 87 -76z"/>
<path d="M6890 8236 c0 -7 131 -98 136 -94 2 2 -25 25 -60 51 -60 44 -76 53
-76 43z"/>
<path d="M8402 8008 c5 -15 37 -18 41 -3 1 6 -9 12 -22 13 -16 3 -22 -1 -19
-10z"/>
<path d="M8440 7982 c0 -5 11 -14 25 -20 14 -6 25 -16 25 -22 0 -5 7 -10 16
-10 9 0 24 -10 34 -22 10 -13 22 -19 26 -15 8 8 -19 36 -73 75 -33 23 -53 28
-53 14z"/>
<path d="M6718 7848 c-51 -62 -118 -144 -148 -183 -29 -38 -97 -122 -150 -185
-133 -159 -167 -205 -147 -194 10 6 47 44 83 85 85 95 379 458 429 527 67 94
30 66 -67 -50z"/>
<path d="M6835 7877 c-25 -30 -83 -102 -128 -161 -45 -58 -134 -170 -198 -249
-147 -181 -229 -289 -229 -302 1 -21 205 215 326 376 43 58 113 148 155 200
88 109 134 177 127 185 -3 3 -27 -19 -53 -49z"/>
<path d="M6711 7523 c-26 -27 -73 -82 -106 -123 -126 -158 -245 -299 -330
-390 -122 -131 -275 -311 -275 -322 0 -21 100 76 278 270 104 114 221 245 259
292 95 116 233 300 233 311 0 18 -14 8 -59 -38z"/>
<path d="M6159 7231 c-8 -10 -61 -75 -119 -143 -133 -157 -134 -158 -123 -158
21 0 272 304 261 315 -3 3 -11 -3 -19 -14z"/>
<path d="M6138 7069 c-89 -97 -149 -172 -143 -177 8 -8 45 25 111 98 89 100
117 137 112 151 -2 7 -38 -26 -80 -72z"/>
<path d="M6331 6888 c-111 -116 -199 -214 -196 -216 2 -3 26 12 52 33 131 105
387 395 348 395 -2 0 -94 -95 -204 -212z"/>
<path d="M5799 6752 c-95 -100 -106 -120 -19 -35 46 45 82 85 79 87 -3 3 -30
-20 -60 -52z"/>
<path d="M6324 6748 l-19 -23 23 19 c21 18 27 26 19 26 -2 0 -12 -10 -23 -22z"/>
<path d="M8493 7507 c-62 -69 -153 -247 -153 -300 0 -19 23 -45 94 -107 52
-46 102 -98 112 -116 22 -40 34 -43 34 -9 0 38 44 148 110 273 33 63 60 117
60 120 -1 4 -26 -20 -56 -53 -48 -52 -53 -55 -38 -25 9 19 28 52 41 73 13 20
20 37 15 37 -10 0 -74 -77 -91 -108 -7 -13 -15 -22 -18 -19 -5 6 31 80 58 119
11 14 19 30 19 34 0 13 -70 -58 -92 -94 -11 -18 -22 -31 -24 -29 -4 4 51 113
69 135 5 7 8 15 5 18 -3 2 -33 -26 -68 -63 l-62 -68 47 79 c25 43 44 80 42 83
-3 2 -26 -22 -53 -54 -26 -32 -52 -62 -57 -68 -5 -5 10 26 33 70 l42 80 -46
-48 c-52 -55 -57 -52 -21 12 29 50 28 62 -2 28z"/>
<path d="M4506 6415 c-87 -38 -107 -52 -61 -41 44 11 145 57 145 67 0 12 7 14
-84 -26z"/>
<path d="M4604 6371 c-57 -21 -112 -53 -97 -58 10 -4 163 64 163 72 0 8 -12 5
-66 -14z"/>
<path d="M4695 6301 c-71 -26 -151 -67 -217 -113 -31 -22 -61 -37 -67 -34 -5
4 -12 2 -16 -3 -3 -6 10 -13 28 -16 28 -6 57 4 163 52 71 33 159 72 196 88 37
15 65 32 62 36 -9 15 -96 9 -149 -10z"/>
<path d="M4950 6313 c0 -3 24 -63 54 -132 30 -69 69 -170 87 -223 29 -89 49
-122 49 -84 0 29 -44 155 -93 266 -63 141 -97 202 -97 173z"/>
<path d="M4705 6201 c-89 -35 -163 -73 -195 -100 -48 -40 6 -22 162 53 154 75
174 103 33 47z"/>
<path d="M4321 6193 c0 -6 -4 -20 -7 -30 -5 -14 -4 -15 5 -7 7 7 11 20 8 30
-3 11 -5 14 -6 7z"/>
<path d="M5014 6033 c29 -65 56 -127 60 -137 3 -10 9 -17 12 -14 12 13 -97
268 -115 268 -5 0 15 -53 43 -117z"/>
<path d="M4705 6119 c-56 -23 -135 -70 -135 -81 0 -8 200 79 215 93 16 16 -27
9 -80 -12z"/>
<path d="M3985 5946 c-54 -17 -100 -42 -157 -83 -74 -54 -59 -70 16 -18 35 25
94 59 130 76 86 40 90 50 11 25z"/>
<path d="M4250 5839 c12 -23 24 -39 26 -36 7 7 -28 77 -38 77 -5 0 1 -18 12
-41z"/>
<path d="M4006 5816 c-84 -43 -171 -104 -162 -113 4 -5 248 130 271 149 26 23
-34 3 -109 -36z"/>
<path d="M4125 5772 c-88 -35 -201 -107 -271 -174 -59 -55 -65 -68 -34 -68 29
0 75 25 227 122 182 118 192 125 173 138 -19 13 -14 14 -95 -18z"/>
<path d="M3698 5705 c-7 -33 0 -83 12 -90 14 -8 17 40 5 81 l-11 39 -6 -30z"/>
<path d="M4195 5706 c-11 -7 -56 -34 -100 -60 -92 -55 -218 -146 -211 -153 11
-11 242 131 336 206 28 23 8 28 -25 7z"/>
<path d="M4139 5589 c-100 -61 -198 -131 -199 -142 0 -12 55 19 160 89 115 77
135 92 128 99 -2 3 -43 -18 -89 -46z"/>
<path d="M4104 5481 c-76 -51 -99 -70 -93 -76 6 -5 155 90 164 105 12 20 -13
9 -71 -29z"/>
<path d="M3320 5431 c-88 -27 -219 -118 -250 -174 -29 -52 -31 -118 -4 -167
l19 -35 5 65 c3 36 11 75 17 86 18 31 156 158 208 191 59 37 61 51 5 34z"/>
<path d="M3311 5349 c-54 -31 -141 -110 -141 -129 0 -6 26 11 58 37 31 25 84
64 116 85 72 46 46 52 -33 7z"/>
<path d="M2926 5252 c-4 -24 -6 -46 -2 -49 8 -8 18 42 14 68 -3 18 -6 13 -12
-19z"/>
<path d="M3460 5248 c-68 -39 -108 -67 -187 -136 -66 -56 -68 -59 -54 -80 7
-11 16 -10 47 6 53 27 278 209 282 227 5 24 -28 18 -88 -17z"/>
<path d="M3440 5126 c-122 -91 -184 -146 -163 -146 25 0 293 211 293 231 0 5
-1 9 -3 9 -1 0 -58 -42 -127 -94z"/>
<path d="M3100 5155 c0 -24 24 -105 31 -105 12 0 11 11 -3 65 -7 25 -16 45
-20 45 -4 0 -8 -2 -8 -5z"/>
<path d="M3508 5103 c-154 -120 -213 -177 -146 -142 34 18 178 132 212 168 47
49 16 36 -66 -26z"/>
<path d="M3510 5006 c-61 -48 -98 -86 -83 -86 13 0 143 109 143 120 0 14 1 14
-60 -34z"/>
<path d="M4487 5025 c-20 -14 -37 -28 -37 -31 0 -7 59 29 72 44 16 18 7 15
-35 -13z"/>
<path d="M4483 4952 c-85 -48 -178 -120 -169 -129 11 -11 256 150 256 168 0
12 6 15 -87 -39z"/>
<path d="M4614 4937 c-23 -18 -93 -68 -157 -111 -64 -44 -114 -83 -111 -88 19
-31 314 178 314 222 0 13 2 14 -46 -23z"/>
<path d="M2810 4820 c-62 -32 -122 -92 -146 -144 -25 -53 -33 -140 -14 -151 6
-4 10 6 10 22 0 56 48 135 132 215 80 77 85 94 18 58z"/>
<path d="M2835 4761 c-105 -60 -178 -177 -157 -253 9 -33 9 -33 31 39 24 79
82 161 145 203 20 14 36 28 36 33 0 10 1 10 -55 -22z"/>
<path d="M2621 4694 c-12 -15 -28 -49 -36 -77 -18 -60 -18 -67 -5 -67 6 0 10
10 10 23 0 12 13 50 30 85 16 34 27 62 25 62 -2 0 -13 -12 -24 -26z"/>
<path d="M2995 4690 c-63 -34 -185 -165 -185 -197 0 -13 5 -23 10 -23 6 0 38
28 73 63 77 78 172 187 160 186 -4 -1 -30 -13 -58 -29z"/>
<path d="M2556 4671 c-18 -33 -34 -131 -21 -118 9 8 45 140 40 145 -2 2 -11
-10 -19 -27z"/>
<path d="M2488 4657 c-5 -10 -8 -40 -7 -65 l1 -47 9 34 c12 40 9 107 -3 78z"/>
<path d="M2989 4584 c-74 -71 -124 -132 -115 -142 4 -3 28 16 53 43 26 28 67
71 92 97 66 69 43 70 -30 2z"/>
<path d="M3953 4571 c-82 -61 -144 -121 -126 -121 13 0 179 128 207 159 35 38
-1 22 -81 -38z"/>
<path d="M2774 4585 c-9 -14 -15 -28 -12 -30 2 -2 12 9 22 25 21 36 13 40 -10
5z"/>
<path d="M2994 4505 c-75 -75 -97 -113 -46 -77 27 20 142 138 142 147 0 19
-33 -5 -96 -70z"/>
<path d="M4024 4481 c-168 -127 -183 -140 -161 -141 26 0 51 15 137 81 82 62
157 135 148 144 -3 3 -59 -35 -124 -84z"/>
<path d="M3066 4474 c-26 -26 -52 -56 -58 -68 -5 -11 19 8 56 44 36 35 66 66
66 67 0 12 -24 -4 -64 -43z"/>
<path d="M3404 4216 c-43 -41 -75 -79 -71 -83 4 -4 42 27 84 70 43 42 74 79
71 83 -4 3 -42 -28 -84 -70z"/>
<path d="M3470 4165 c-40 -41 -71 -77 -67 -81 7 -8 48 26 105 88 73 79 42 73
-38 -7z"/>
<path d="M2890 4191 c0 -25 84 -101 149 -135 67 -35 109 -46 96 -26 -3 6 -14
10 -23 10 -23 0 -126 70 -179 121 -24 23 -43 36 -43 30z"/>
<path d="M3335 3895 c17 -14 35 -25 40 -25 6 0 -3 11 -20 25 -16 13 -34 24
-40 24 -5 0 4 -11 20 -24z"/>
<path d="M3340 3856 c0 -8 190 -147 238 -174 62 -35 51 -20 -20 27 -35 22 -98
66 -140 97 -43 30 -78 53 -78 50z"/>
<path d="M3678 3658 c6 -6 18 -8 28 -6 14 3 12 5 -9 10 -19 3 -25 2 -19 -4z"/>
<path d="M5820 5858 c0 -3 7 -23 16 -44 13 -31 16 -64 12 -166 -3 -71 -2 -128
2 -128 16 0 43 81 48 143 5 77 -13 140 -53 177 -14 13 -25 21 -25 18z"/>
<path d="M5657 5802 c21 -27 43 -58 50 -68 10 -16 12 -17 12 -3 1 25 -61 113
-82 117 -15 3 -10 -8 20 -46z"/>
<path d="M5500 5825 c0 -10 68 -140 84 -160 12 -15 15 -16 16 -5 0 17 -52 127
-73 153 -14 16 -27 22 -27 12z"/>
<path d="M5450 5805 c0 -12 80 -164 89 -170 14 -8 -13 66 -45 126 -23 42 -44
63 -44 44z"/>
<path d="M5060 5669 c-120 -33 -296 -92 -284 -96 6 -2 69 13 140 32 184 51
197 52 215 23 28 -43 79 -168 79 -192 0 -12 -8 -30 -17 -38 -49 -43 -195 -93
-305 -104 l-66 -7 -52 49 c-28 26 -68 77 -88 113 -30 54 -38 62 -40 43 -6 -44
70 -156 142 -207 50 -36 119 -43 207 -21 91 24 192 72 229 111 30 31 32 38 28
82 -6 58 -78 227 -98 230 -8 1 -49 -7 -90 -18z"/>
<path d="M5185 5670 c3 -5 11 -10 16 -10 6 0 7 5 4 10 -3 6 -11 10 -16 10 -6
0 -7 -4 -4 -10z"/>
<path d="M5210 5636 c0 -10 59 -129 60 -120 0 15 -48 124 -55 124 -3 0 -5 -2
-5 -4z"/>
<path d="M5764 5600 c3 -14 6 -31 6 -37 0 -7 5 -13 11 -13 13 0 3 50 -13 65
-8 7 -9 2 -4 -15z"/>
<path d="M5065 5159 c-50 -18 -98 -18 -172 1 -18 5 -33 5 -33 1 0 -11 94 -31
143 -31 38 0 127 31 127 45 0 7 -7 5 -65 -16z"/>
<path d="M6280 4980 c-12 -8 -11 -10 8 -10 12 0 22 5 22 10 0 13 -11 13 -30 0z"/>
<path d="M6288 4920 c-42 -4 -97 -16 -122 -26 -47 -20 -63 -40 -23 -31 12 3
63 13 114 22 50 9 100 23 110 31 10 7 14 13 8 12 -5 0 -45 -4 -87 -8z"/>
<path d="M6348 4862 c-43 -9 -78 -19 -78 -24 0 -20 146 4 169 27 19 18 18 18
-91 -3z"/>
<path d="M5181 4402 c-1 -18 6 -46 14 -62 17 -32 32 -42 20 -12 -4 9 -13 37
-20 62 -13 43 -13 44 -14 12z"/>
<path d="M5305 3820 c11 -17 93 -70 110 -70 25 0 8 18 -48 50 -54 31 -72 37
-62 20z"/>
<path d="M4622 3429 c3 -8 11 -40 18 -71 7 -32 17 -58 22 -58 14 0 -17 126
-34 136 -7 5 -9 2 -6 -7z"/>
<path d="M4942 3148 c3 -7 41 -31 85 -54 77 -39 174 -65 291 -79 115 -13 30
27 -172 80 -54 15 -121 35 -148 46 -58 22 -61 23 -56 7z"/>
<path d="M4712 3044 c-6 -60 -9 -110 -7 -113 20 -19 45 172 28 204 -7 12 -13
-13 -21 -91z"/>
<path d="M5018 3038 c31 -31 242 -72 256 -49 5 7 -2 11 -16 11 -13 0 -74 11
-135 23 -62 13 -109 19 -105 15z"/>
<path d="M5004 2982 c9 -15 103 -49 156 -57 43 -6 235 26 249 41 3 4 -43 4
-102 1 -99 -4 -204 3 -281 19 -18 4 -26 3 -22 -4z"/>
<path d="M5213 2891 c-28 -4 -55 -10 -60 -15 -12 -12 139 -1 162 12 18 10 16
11 -15 10 -19 0 -58 -4 -87 -7z"/>
<path d="M4922 2868 c-15 -19 -125 -228 -119 -228 6 0 89 133 117 188 21 43
23 64 2 40z"/>
<path d="M5098 2833 c7 -3 16 -2 19 1 4 3 -2 6 -13 5 -11 0 -14 -3 -6 -6z"/>
<path d="M4918 2743 c-19 -23 -31 -43 -24 -43 2 0 14 14 26 30 23 33 22 40 -2
13z"/>
<path d="M2435 3662 c-66 -60 -210 -202 -320 -318 -305 -319 -349 -361 -454
-429 -109 -72 -190 -139 -179 -150 4 -4 32 15 61 42 30 27 100 73 156 102 113
60 152 97 325 306 54 66 198 218 319 338 121 119 218 217 216 217 -2 0 -58
-49 -124 -108z"/>
<path d="M2410 3254 c-94 -120 -194 -264 -187 -270 13 -13 287 328 287 357 0
27 -33 -2 -100 -87z"/>
<path d="M2409 3097 c-59 -67 -187 -205 -285 -307 -223 -230 -274 -288 -274
-309 0 -9 21 8 52 44 29 33 106 116 173 185 66 69 152 161 190 205 39 44 99
111 135 150 81 88 134 155 123 155 -4 0 -56 -55 -114 -123z"/>
<path d="M2052 2936 c-78 -79 -142 -150 -142 -157 0 -8 17 4 38 26 21 22 87
91 147 153 60 61 106 114 103 117 -2 3 -68 -60 -146 -139z"/>
<path d="M2067 2861 c-59 -60 -107 -115 -107 -122 0 -7 21 7 46 31 74 73 187
200 177 200 -6 0 -58 -49 -116 -109z"/>
<path d="M1685 2859 c-66 -42 -134 -98 -146 -121 -18 -33 10 -20 64 31 29 26
74 65 100 85 59 44 49 47 -18 5z"/>
<path d="M1456 2835 c-46 -36 -61 -54 -28 -36 23 13 89 70 81 71 -3 0 -27 -16
-53 -35z"/>
<path d="M1730 2806 c-65 -48 -124 -112 -111 -120 9 -6 60 36 166 135 34 33
-6 22 -55 -15z"/>
<path d="M1762 2699 c-40 -34 -72 -64 -72 -68 0 -4 9 -7 19 -6 22 1 148 135
128 135 -2 0 -35 -27 -75 -61z"/>
<path d="M1904 2676 c-65 -54 -119 -115 -110 -123 4 -4 46 32 94 80 93 93 100
114 16 43z"/>
<path d="M5305 2665 c-22 -8 -62 -19 -90 -25 -28 -6 -61 -22 -75 -35 -30 -30
-13 -33 46 -10 l39 16 -45 -41 c-44 -41 -45 -41 -15 -35 36 7 163 93 183 123
16 25 13 25 -43 7z"/>
<path d="M5910 2615 c-88 -62 -159 -124 -145 -125 12 0 160 110 200 150 16 17
27 30 25 30 -3 -1 -39 -25 -80 -55z"/>
<path d="M5410 2580 c-73 -39 -180 -122 -180 -141 0 -21 40 -6 92 34 209 161
223 178 88 107z"/>
<path d="M5431 2504 c-72 -42 -151 -113 -151 -137 0 -24 11 -21 58 13 54 39
180 159 167 160 -5 0 -39 -17 -74 -36z"/>
<path d="M4886 2377 c-45 -46 -107 -103 -140 -127 -32 -24 -54 -46 -48 -48 14
-4 144 61 190 96 41 31 112 118 112 137 0 7 -7 16 -17 19 -11 5 -39 -17 -97
-77z"/>
<path d="M5429 2391 c-72 -52 -117 -131 -75 -131 20 0 137 110 130 121 -2 5 0
18 6 29 16 30 0 25 -61 -19z"/>
<path d="M5512 2320 c-58 -39 -122 -101 -122 -119 0 -5 7 -14 15 -21 12 -10
27 -1 86 56 128 124 138 162 21 84z"/>
<path d="M4985 2280 c-42 -39 -108 -92 -147 -117 -86 -56 -76 -67 19 -22 92
43 261 209 214 209 -6 0 -44 -32 -86 -70z"/>
<path d="M5160 2295 c-7 -8 -8 -15 -2 -15 5 0 15 7 22 15 7 8 8 15 2 15 -5 0
-15 -7 -22 -15z"/>
<path d="M5018 2235 c-38 -36 -68 -69 -68 -74 0 -5 -29 -28 -65 -51 -36 -23
-65 -45 -65 -47 0 -10 56 9 112 37 33 17 60 25 63 20 10 -16 -4 -29 -68 -62
-76 -39 -54 -50 28 -13 32 14 64 25 71 25 31 0 11 -21 -48 -52 -73 -37 -58
-49 23 -18 65 24 69 24 69 5 0 -10 -24 -27 -60 -42 -102 -46 -69 -54 45 -12
59 23 55 22 55 6 0 -7 -26 -26 -57 -41 -69 -35 -57 -45 18 -16 62 23 69 24 69
9 0 -6 -27 -22 -60 -36 -32 -14 -57 -29 -55 -34 3 -4 35 1 72 12 89 25 103 9
24 -26 -34 -15 -61 -31 -61 -36 0 -7 92 15 111 27 3 2 16 -4 29 -13 l23 -16
-51 -23 c-29 -13 -52 -28 -52 -35 0 -6 7 -8 17 -5 9 4 36 9 58 13 l41 5 123
-176 c112 -162 261 -370 349 -488 20 -26 37 -46 40 -44 7 8 -37 82 -103 176
-164 231 -193 289 -48 97 37 -48 68 -85 71 -82 2 2 -13 32 -35 67 -57 92 -58
92 -45 84 6 -4 49 -65 96 -136 47 -72 89 -130 92 -130 3 0 -13 35 -36 78 -23
42 -77 142 -120 222 -150 280 -319 586 -356 646 -20 34 -66 92 -100 130 -39
42 -63 76 -61 88 4 36 -18 25 -85 -39z"/>
<path d="M5575 2255 c-27 -19 -69 -53 -92 -77 l-43 -44 116 -224 c105 -203
359 -640 386 -665 8 -7 9 -5 4 5 -4 8 1 4 11 -9 48 -65 54 -69 33 -18 -11 27
-31 71 -44 100 -14 28 -24 53 -22 55 4 3 89 -132 145 -230 18 -32 36 -60 41
-63 10 -6 -138 318 -170 372 -11 20 -19 37 -17 40 7 6 33 -40 149 -257 105
-196 154 -280 163 -280 8 0 -260 527 -318 625 -109 184 -277 500 -277 521 0
12 -6 24 -13 27 -7 3 -19 23 -26 46 -11 39 -10 43 15 76 33 44 23 44 -41 0z
m-25 -79 c0 -3 -4 -8 -10 -11 -5 -3 -10 -1 -10 4 0 6 5 11 10 11 6 0 10 -2 10
-4z"/>
<path d="M6483 2120 c8 -57 39 -159 44 -144 4 13 -33 174 -43 183 -4 3 -4 -14
-1 -39z"/>
<path d="M6550 2121 c0 -7 61 -174 85 -233 4 -10 11 -18 15 -18 6 0 -35 124
-79 233 -10 26 -21 36 -21 18z"/>
<path d="M4560 2008 c-47 -5 -87 -11 -89 -14 -22 -22 156 -27 182 -5 16 12 15
33 -1 30 -4 -1 -45 -6 -92 -11z"/>
<path d="M4525 1951 l-50 -7 45 -13 c50 -15 155 -10 173 8 6 6 9 11 7 11 -55
6 -136 6 -175 1z"/>
<path d="M4530 1898 c0 -25 129 -46 174 -28 17 6 26 14 20 20 -11 10 -194 18
-194 8z"/>
<path d="M4574 1821 c27 -30 196 -56 211 -32 10 17 -26 28 -120 40 -115 14
-111 14 -91 -8z"/>
<path d="M6550 1792 c0 -21 72 -168 77 -155 2 6 -14 47 -36 90 -22 43 -40 72
-41 65z"/>
<path d="M4590 1761 c0 -6 6 -11 14 -11 7 0 19 -6 25 -14 22 -27 203 -47 217
-25 11 18 -12 26 -107 38 -49 6 -102 14 -119 17 -19 4 -30 2 -30 -5z"/>
<path d="M6700 1736 c0 -10 61 -159 80 -195 33 -63 22 -14 -21 90 -35 84 -59
127 -59 105z"/>
<path d="M4646 1676 c6 -16 41 -31 104 -45 105 -23 181 -18 154 9 -9 9 -214
50 -251 50 -7 0 -10 -6 -7 -14z"/>
<path d="M4720 1587 c31 -33 219 -63 234 -38 7 11 -101 37 -190 47 -53 6 -58
5 -44 -9z"/>
<path d="M5970 1544 c0 -5 26 -57 58 -114 32 -58 97 -182 144 -277 77 -153
141 -263 154 -263 13 0 -317 623 -347 655 -6 5 -9 5 -9 -1z"/>
<path d="M4784 1501 c10 -10 37 -24 61 -30 55 -14 152 -14 160 -1 3 6 5 10 3
10 -2 0 -49 9 -106 20 -133 26 -140 26 -118 1z"/>
<path d="M4900 1439 c0 -5 12 -14 26 -19 32 -13 91 -13 79 -1 -15 13 -105 30
-105 20z"/>
<path d="M4776 1298 c20 -40 38 -80 39 -88 1 -8 36 -85 77 -170 42 -86 112
-234 156 -330 43 -96 137 -293 207 -437 112 -231 131 -263 151 -263 21 0 6 35
-184 418 -115 229 -245 489 -290 576 -78 153 -98 204 -53 134 11 -18 21 -29
21 -24 0 5 -22 43 -49 85 -26 42 -58 95 -69 118 -12 23 -27 45 -32 48 -6 4 5
-26 26 -67z m72 -124 c-4 -3 -12 5 -18 18 -12 22 -12 22 6 6 10 -10 15 -20 12
-24z"/>
<path d="M6880 1340 c24 -47 142 -211 147 -206 7 6 -119 197 -143 217 -16 13
-16 12 -4 -11z"/>
<path d="M4930 1340 c0 -44 210 -413 226 -397 3 2 -22 50 -56 105 -33 56 -82
147 -110 202 -47 94 -60 113 -60 90z"/>
<path d="M5016 1230 c45 -91 103 -184 111 -176 7 6 -97 193 -127 227 -14 16
-8 -1 16 -51z"/>
<path d="M4901 1155 c97 -228 181 -400 464 -952 85 -166 102 -193 122 -193 13
0 23 4 23 9 0 11 -338 673 -377 736 -110 183 -186 322 -217 400 -20 50 -45
101 -56 115 -11 14 8 -38 41 -115z"/>
<path d="M6831 1123 c81 -133 147 -223 402 -545 37 -49 72 -88 75 -88 4 0 13
4 21 9 17 11 36 -15 -238 336 -222 285 -279 355 -292 355 -5 0 10 -30 32 -67z"/>
<path d="M4961 1155 c-1 -15 118 -249 244 -480 57 -104 157 -293 223 -420
l120 -230 41 -3 c22 -2 41 -1 41 2 0 3 -94 173 -209 378 -200 358 -263 464
-382 645 -30 45 -59 90 -66 100 -6 10 -12 13 -12 8z"/>
<path d="M6640 1145 c0 -10 73 -115 77 -111 3 2 -12 29 -33 60 -34 52 -44 63
-44 51z"/>
<path d="M6840 968 c18 -27 42 -56 54 -65 11 -10 5 3 -14 29 -18 27 -42 56
-54 65 -11 10 -5 -3 14 -29z"/>
<path d="M6073 993 c35 -59 325 -531 386 -628 44 -71 85 -136 90 -144 5 -9 17
-12 35 -7 l26 6 -42 68 c-219 351 -467 712 -490 712 -5 0 -7 -3 -5 -7z"/>
<path d="M5256 918 c9 -17 49 -84 88 -147 40 -64 87 -143 105 -176 64 -114
232 -395 237 -395 10 0 -234 434 -293 522 -16 23 -53 85 -83 136 -30 50 -58
92 -62 92 -5 0 -1 -14 8 -32z"/>
<path d="M5760 934 c0 -8 43 -43 54 -44 5 0 -1 11 -14 25 -22 24 -40 32 -40
19z"/>
<path d="M6811 893 c68 -113 199 -289 199 -268 0 23 -94 162 -196 291 -23 29
-25 13 -3 -23z"/>
<path d="M6390 880 c0 -49 341 -610 370 -610 47 1 38 19 -160 318 -110 166
-202 302 -205 302 -3 0 -5 -5 -5 -10z"/>
<path d="M5821 829 c27 -52 182 -302 219 -355 22 -32 40 -52 40 -45 0 28 -233
399 -261 416 -7 5 -7 -1 2 -16z"/>
<path d="M5302 738 c18 -35 43 -85 57 -113 13 -27 59 -111 101 -185 42 -74
112 -197 154 -272 72 -127 95 -154 111 -128 3 5 -24 58 -61 117 -163 264 -193
314 -248 413 -86 152 -126 219 -136 225 -5 3 5 -23 22 -57z"/>
<path d="M5433 743 c2 -5 53 -89 112 -187 59 -99 146 -253 192 -343 65 -125
89 -163 104 -163 10 0 19 5 19 11 0 13 -124 221 -268 449 -146 231 -152 240
-158 240 -3 0 -3 -3 -1 -7z"/>
<path d="M7043 727 c10 -26 120 -185 161 -233 23 -26 38 -36 45 -29 6 7 -24
52 -94 139 -117 144 -121 149 -112 123z"/>
<path d="M6450 597 c0 -2 31 -56 68 -118 37 -63 83 -140 101 -171 34 -61 45
-73 61 -63 10 6 -9 38 -137 232 -64 98 -93 135 -93 120z"/>
<path d="M5670 586 c0 -10 33 -74 108 -211 118 -216 172 -305 187 -305 47 0
44 11 -37 143 -146 241 -258 402 -258 373z"/>
<path d="M6311 459 c66 -120 166 -269 182 -269 14 0 -4 32 -72 134 -86 126
-145 200 -110 135z"/>
<path d="M6123 366 c11 -28 58 -98 63 -93 6 5 -54 107 -63 107 -3 0 -3 -6 0
-14z"/>
<path d="M6372 211 c13 -21 28 -39 33 -39 14 0 9 14 -17 49 -32 42 -43 36 -16
-10z"/>
</g>
</svg>
