<?xml version="1.0" standalone="no"?>
<!DOCTYPE svg PUBLIC "-//W3C//DTD SVG 20010904//EN"
 "http://www.w3.org/TR/2001/REC-SVG-20010904/DTD/svg10.dtd">
<svg version="1.0" xmlns="http://www.w3.org/2000/svg"
 width="2048.000000pt" height="2048.000000pt" viewBox="0 0 2048.000000 2048.000000"
 preserveAspectRatio="xMidYMid meet">
    <circle cx="1024" cy="1024" r="1024" fill="#FFFFFF" />

<g transform="translate(0.000000,2048.000000) scale(0.100000,-0.100000)"
fill="#000000" stroke="none">
<path d="M11370 17944 c-249 -22 -641 -86 -834 -135 -363 -93 -861 -286 -990
-384 -97 -75 -103 -179 -14 -261 48 -44 71 -57 188 -100 120 -45 166 -47 355
-20 244 34 771 29 735 -8 -3 -2 -71 0 -151 5 -159 10 -357 -3 -629 -41 -303
-42 -383 -63 -414 -112 -14 -23 17 -66 73 -96 55 -31 129 -37 277 -22 501 50
906 21 1469 -106 216 -48 542 -177 740 -292 146 -84 335 -246 335 -286 0 -21
-47 -96 -142 -228 -42 -60 -92 -138 -110 -175 -30 -61 -33 -76 -33 -158 0 -82
3 -97 34 -163 40 -85 47 -67 -71 -213 -45 -58 -119 -152 -163 -209 -44 -57
-114 -144 -155 -194 -42 -50 -113 -138 -160 -196 -215 -268 -638 -751 -880
-1005 -52 -55 -158 -169 -235 -254 -240 -265 -264 -291 -456 -488 -102 -106
-192 -193 -198 -193 -7 0 -38 24 -69 53 -106 100 -229 171 -390 226 -269 93
-370 84 -653 -55 -100 -49 -210 -95 -263 -110 -181 -51 -275 -124 -405 -318
-86 -127 -189 -239 -245 -268 -34 -17 -51 -19 -120 -14 -264 20 -348 19 -431
-3 -116 -32 -189 -75 -276 -161 -94 -93 -113 -133 -180 -371 -71 -253 -100
-306 -212 -383 -48 -33 -67 -39 -203 -61 -82 -14 -177 -35 -212 -46 -83 -28
-169 -87 -237 -162 -100 -112 -129 -193 -160 -434 -19 -149 -66 -253 -153
-342 -51 -51 -70 -62 -179 -104 -209 -82 -327 -177 -401 -326 -80 -159 -90
-295 -36 -496 33 -125 33 -173 -1 -305 -35 -137 -43 -288 -21 -385 9 -38 43
-124 76 -190 82 -166 130 -275 130 -295 0 -21 -201 -242 -455 -500 -106 -107
-217 -223 -246 -256 -137 -156 -442 -485 -500 -538 -82 -76 -136 -110 -290
-183 -158 -76 -257 -142 -338 -229 -166 -177 -183 -368 -56 -619 74 -147 162
-262 325 -426 266 -268 499 -443 781 -587 187 -95 257 -113 377 -93 153 26
241 71 337 172 56 59 77 93 136 217 108 228 135 277 237 427 138 204 248 344
481 615 168 194 508 577 520 584 5 3 35 -32 67 -78 179 -255 419 -536 568
-663 91 -78 299 -213 506 -328 141 -79 181 -118 221 -213 83 -202 119 -250
326 -441 148 -136 162 -158 235 -371 54 -157 101 -248 209 -403 208 -297 254
-378 505 -884 107 -216 194 -395 194 -397 0 -2 26 -60 59 -128 96 -204 238
-501 337 -710 52 -108 94 -199 94 -203 0 -3 11 -23 25 -45 l25 -40 175 0 c96
0 175 2 175 5 0 16 -608 1249 -720 1460 -21 39 -70 135 -110 215 -161 320
-314 575 -495 830 -143 200 -186 280 -217 404 -43 172 -83 243 -197 353 -52
51 -89 93 -83 93 17 0 190 -66 226 -86 16 -9 62 -19 104 -23 47 -4 77 -11 80
-18 4 -13 -18 -16 -93 -13 -37 1 -39 0 -24 -15 15 -16 81 -38 169 -56 79 -16
234 16 245 51 11 35 -2 40 -100 33 -107 -7 -126 5 -40 25 31 7 86 27 123 44
37 16 110 44 162 60 152 48 304 142 438 272 74 72 172 206 172 235 0 28 -35 2
-145 -110 -228 -230 -250 -248 -387 -319 -67 -35 -89 -42 -136 -41 -37 0 -90
-10 -151 -30 -52 -16 -108 -29 -124 -27 -28 3 -25 6 44 43 70 38 179 129 167
140 -3 3 -25 -6 -49 -20 -82 -47 -293 -105 -275 -76 4 5 39 25 79 45 80 40
136 80 125 91 -4 4 -68 -14 -143 -39 -75 -25 -159 -48 -188 -51 l-52 -6 105
53 c58 30 125 67 150 84 46 31 217 130 345 198 58 32 108 77 298 268 159 160
241 235 270 248 23 10 98 28 167 40 230 39 395 91 600 190 102 49 208 97 236
108 55 22 393 195 434 222 50 33 54 32 15 -6 -38 -36 -196 -144 -355 -242 -75
-47 -94 -79 -39 -68 33 6 233 113 327 173 65 42 162 86 162 73 0 -5 -16 -13
-35 -19 -19 -5 -53 -23 -74 -40 -21 -17 -79 -57 -129 -88 -50 -32 -151 -101
-224 -154 -130 -94 -263 -174 -361 -217 -44 -20 -201 -111 -292 -170 -58 -38
-205 -156 -205 -164 0 -15 46 -7 95 16 28 13 97 59 154 102 157 120 159 121
261 181 52 31 128 79 169 106 40 27 111 64 157 82 110 43 285 142 386 219 137
104 136 103 98 62 -45 -48 -192 -159 -348 -261 -67 -44 -120 -84 -118 -90 7
-24 58 -14 138 26 101 51 315 183 418 258 41 30 69 47 61 38 -11 -14 -257
-194 -364 -267 -53 -36 -193 -144 -199 -153 -27 -42 65 -13 142 45 194 146
270 205 305 237 82 74 98 82 30 15 -188 -185 -374 -359 -407 -382 -21 -13 -38
-29 -38 -34 0 -17 54 2 78 28 13 13 34 32 48 41 20 12 22 18 12 25 -10 7 -8 8
4 4 44 -14 256 178 517 467 68 75 127 137 132 137 11 0 -98 -134 -186 -230
-73 -79 -101 -116 -57 -76 17 16 34 27 37 24 5 -5 -69 -78 -185 -180 -64 -56
-178 -135 -288 -196 -13 -8 -22 -15 -20 -17 9 -10 86 17 131 45 143 89 175
118 505 457 56 58 105 104 107 101 16 -16 -602 -675 -695 -742 -28 -20 -50
-41 -50 -47 0 -6 6 -7 13 -2 81 50 145 100 239 190 364 344 453 431 494 484
51 64 70 75 53 32 -30 -79 -334 -383 -672 -672 -93 -79 -125 -116 -113 -128 8
-8 42 17 116 83 72 66 71 62 -12 -49 -50 -67 -72 -117 -52 -117 4 0 37 27 74
60 104 92 109 80 16 -41 -36 -46 -62 -87 -60 -91 7 -11 39 8 62 37 11 14 22
25 24 25 3 0 3 -22 0 -48 -4 -49 -1 -60 61 -232 96 -261 246 -586 363 -785
183 -311 574 -901 726 -1095 32 -41 82 -105 111 -142 28 -37 58 -70 66 -73 10
-4 10 0 -2 17 -9 13 -74 112 -144 221 -71 109 -161 247 -201 308 -40 61 -69
108 -63 105 15 -10 193 -235 272 -346 90 -125 186 -276 222 -346 27 -52 145
-234 153 -234 13 0 -2 36 -46 109 -28 46 -70 120 -94 166 -24 45 -68 120 -99
166 -30 46 -85 133 -122 193 -37 60 -93 148 -124 195 -73 109 -74 111 -63 111
9 0 156 -172 242 -282 24 -32 46 -55 48 -53 2 2 -29 59 -68 127 -103 174 -103
175 -147 258 -317 595 -445 871 -430 927 4 16 6 15 12 -6 21 -65 176 -350 253
-464 68 -100 63 -63 -6 56 -62 106 -81 146 -152 311 -44 104 -53 146 -33 153
8 3 31 -35 62 -99 86 -182 106 -185 37 -6 -50 129 -60 169 -51 198 11 34 21
23 50 -52 36 -93 114 -251 175 -353 26 -44 62 -107 79 -140 34 -63 61 -98 61
-78 0 12 -38 86 -128 247 -30 54 -74 149 -97 210 -24 61 -53 137 -65 168 -16
42 -21 67 -16 94 l7 37 65 -119 c126 -228 146 -233 57 -14 -69 170 -101 295
-108 425 -2 44 -2 69 1 55 31 -146 61 -245 99 -331 53 -118 79 -156 69 -99 -3
19 -19 74 -35 121 -37 111 -95 601 -66 558 1 -2 22 -83 46 -179 48 -195 56
-220 71 -220 16 0 12 55 -20 305 -40 320 -32 316 50 -25 48 -199 62 -240 79
-240 10 0 -5 144 -28 260 -12 58 -21 132 -20 165 l1 60 34 -130 c19 -71 48
-170 65 -220 29 -87 68 -171 69 -149 0 5 -20 109 -44 230 -58 293 -57 284 -48
284 11 0 83 -162 125 -280 18 -52 48 -117 66 -145 18 -27 30 -41 26 -30 -8 22
-68 179 -81 210 -7 17 -6 18 8 7 14 -12 298 -570 298 -587 0 -9 41 -103 157
-360 98 -215 227 -477 354 -713 67 -126 83 -174 40 -121 -45 55 -375 688 -466
894 -33 77 -147 287 -152 281 -9 -9 141 -369 257 -616 114 -245 134 -286 215
-440 70 -132 74 -142 43 -112 -19 18 -56 69 -82 113 -70 118 -466 914 -526
1059 -51 121 -68 155 -77 146 -5 -5 118 -318 152 -386 15 -29 73 -157 130
-284 56 -127 137 -302 180 -389 42 -87 75 -163 73 -169 -10 -28 -100 134 -302
537 -66 132 -131 260 -146 285 -14 25 -32 65 -40 90 -20 64 -98 228 -99 209
-1 -23 35 -116 114 -294 37 -82 92 -211 122 -285 115 -286 132 -327 163 -405
42 -104 75 -162 162 -282 39 -54 136 -195 216 -313 79 -118 187 -271 238 -339
113 -149 335 -410 350 -410 6 -1 18 7 28 18 16 17 10 26 -115 182 -121 152
-156 199 -146 199 4 0 200 -214 292 -317 31 -37 42 -39 70 -19 18 13 15 18
-52 97 -78 94 -287 368 -304 402 l-12 22 23 -20 c12 -11 88 -92 168 -180 80
-88 170 -185 200 -216 l54 -57 29 17 c16 9 29 18 29 21 0 3 -64 77 -141 165
-149 170 -235 276 -314 390 -43 62 -45 67 -15 40 18 -16 98 -102 178 -190 211
-231 344 -365 361 -365 9 0 25 7 35 15 23 17 26 11 -89 140 -232 258 -475 554
-475 578 1 7 6 5 13 -4 7 -10 78 -86 158 -170 80 -85 169 -181 199 -214 93
-103 183 -195 233 -237 46 -39 48 -40 72 -24 32 21 29 26 -76 141 -45 50 -113
126 -152 170 -76 87 -236 268 -334 379 -35 38 -63 76 -63 83 0 12 161 -149
600 -600 l105 -108 33 16 c17 9 32 19 32 22 0 6 -104 121 -310 343 -69 74
-170 191 -225 260 -54 69 -114 142 -132 163 -18 20 -33 42 -33 49 0 17 35 -18
188 -187 141 -154 520 -536 559 -562 25 -16 53 -11 53 9 0 7 -80 97 -179 200
-291 305 -445 476 -527 588 -46 61 -57 80 -50 80 2 0 111 -106 243 -236 131
-130 320 -314 421 -410 210 -201 174 -192 317 -81 50 39 91 71 93 73 2 1 -232
238 -520 526 -580 580 -938 965 -1239 1329 -164 200 -252 318 -446 608 -46 68
-99 142 -117 165 -51 62 -183 269 -232 360 -24 45 -65 143 -93 218 -27 76 -60
152 -72 170 -12 18 -64 76 -114 128 -121 127 -182 257 -192 410 l-5 75 102
273 c126 341 160 458 210 731 126 676 161 812 251 986 25 49 73 142 106 206
107 207 124 324 83 576 -27 168 -52 247 -98 319 -60 91 -133 158 -293 265
-192 128 -290 217 -467 423 -80 93 -199 222 -264 287 -66 65 -114 120 -108
124 12 7 184 205 280 321 36 43 157 186 270 318 113 131 223 262 245 290 22
29 130 159 240 290 110 132 213 255 230 275 16 20 59 70 95 111 37 41 97 113
135 160 38 47 112 137 164 200 53 63 127 153 165 200 109 131 315 368 376 432
l55 57 70 -24 c121 -42 201 -30 346 53 41 24 110 72 154 107 44 36 94 72 112
82 31 16 33 16 84 -8 74 -34 191 -116 356 -248 l143 -114 -7 -136 c-5 -125 -4
-141 15 -184 31 -69 104 -160 180 -222 37 -31 144 -118 237 -196 321 -265 386
-294 577 -254 91 19 154 48 266 121 364 237 730 680 886 1072 67 169 84 339
46 453 -40 118 -101 188 -245 284 -87 58 -247 177 -370 277 -92 75 -175 112
-260 116 -60 3 -81 -1 -150 -28 -65 -27 -85 -31 -106 -23 -34 13 -335 241
-408 309 l-55 51 17 70 c23 96 21 142 -9 264 -37 148 -98 270 -176 351 -71 73
-672 528 -1168 885 -207 149 -306 204 -471 264 -127 45 -731 227 -879 264
-235 58 -518 106 -865 145 -98 11 -696 22 -785 14z m522 -158 c75 -3 183 -12
240 -21 617 -97 813 -140 1318 -286 450 -129 580 -197 1030 -534 347 -260 486
-362 540 -398 104 -68 200 -144 225 -176 24 -34 45 -108 45 -162 0 -45 -34
-86 -150 -184 -58 -48 -163 -145 -235 -215 -71 -69 -158 -153 -191 -186 -117
-112 -312 -323 -386 -416 -114 -143 -317 -356 -366 -385 -67 -39 -106 -35
-198 22 -42 27 -109 75 -148 107 -39 32 -114 88 -166 125 -52 37 -178 126
-280 198 -314 223 -453 310 -538 336 -42 12 -66 10 -161 -17 -22 -7 -23 -5
-17 22 10 40 72 143 147 244 181 242 304 425 361 539 l63 125 0 90 c0 77 -4
98 -24 136 -83 157 -409 370 -746 488 -245 85 -374 119 -625 163 -152 26 -208
31 -420 36 -405 9 -740 -24 -1090 -107 -245 -58 -356 -80 -401 -80 -45 0 -96
37 -86 63 17 45 475 220 842 321 189 52 496 106 765 135 272 30 267 30 652 17z
m-701 -785 c242 -32 327 -48 453 -85 188 -56 163 -59 -55 -7 -90 21 -207 43
-259 50 -161 19 -422 60 -428 65 -11 12 71 5 289 -23z m4037 -1440 c-1 -5 -64
-75 -138 -156 -74 -81 -140 -153 -145 -159 -6 -6 -32 -41 -58 -78 -56 -80 -73
-94 -63 -52 23 92 220 335 350 432 29 22 60 30 54 13z m329 -60 c94 -81 308
-247 363 -282 37 -24 47 -35 37 -41 -10 -5 -26 3 -48 22 -19 17 -102 83 -185
148 -184 143 -253 202 -237 202 6 0 38 -22 70 -49z m-228 -5 c14 -14 21 -29
17 -33 -4 -4 -15 2 -24 13 -9 12 -27 27 -40 33 -12 7 -20 16 -17 22 8 12 33
-2 64 -35z m-39 -4 c0 -2 -7 -16 -15 -33 -22 -41 -11 -52 40 -44 26 3 46 2 50
-5 4 -6 -4 -10 -21 -10 -23 0 -25 -2 -13 -16 9 -11 22 -14 41 -10 31 6 37 -7
11 -23 -17 -10 -16 -11 2 -12 37 -4 40 -5 67 -23 15 -10 25 -23 21 -29 -3 -6
-1 -7 6 -3 7 5 20 -3 32 -18 21 -27 53 -34 64 -16 8 13 -41 60 -115 110 -60
41 -110 90 -92 90 6 0 48 -28 94 -63 46 -35 126 -93 178 -130 155 -110 169
-122 166 -132 -1 -5 -11 -12 -22 -13 -33 -7 -38 -21 -11 -33 23 -11 30 -9 62
20 80 70 48 16 -74 -124 -52 -60 -119 -136 -147 -167 -29 -32 -78 -91 -109
-133 -31 -41 -61 -78 -66 -81 -25 -15 -17 11 33 107 29 57 54 107 56 112 2 4
-1 7 -7 7 -5 0 -35 -30 -65 -66 -31 -36 -56 -59 -56 -52 -1 7 -9 2 -21 -11
-35 -42 -33 -14 3 41 56 84 62 99 47 108 -19 13 -30 4 -88 -70 -30 -39 -59
-70 -64 -70 -15 0 0 43 37 108 45 80 52 102 32 102 -9 0 -24 -10 -34 -22 -46
-58 -116 -128 -128 -128 -19 0 -18 7 4 31 11 11 25 39 32 62 8 23 20 52 28 64
14 23 10 53 -7 53 -5 0 -35 -36 -67 -80 -32 -44 -62 -80 -66 -80 -15 0 -8 27
18 76 26 48 44 164 25 164 -14 0 -33 -28 -27 -39 6 -8 -30 -81 -40 -81 -7 0 9
35 24 53 8 9 12 20 9 24 -12 12 -46 -29 -63 -76 -21 -57 -26 -62 -42 -52 -10
6 -3 29 31 102 53 111 62 139 48 139 -13 0 -97 -111 -119 -157 -9 -18 -20 -33
-25 -33 -9 0 -1 31 18 70 18 36 55 158 55 183 0 19 -1 19 -18 3 -10 -9 -38
-54 -62 -100 -24 -47 -47 -83 -51 -80 -9 5 18 86 55 164 14 30 26 62 26 70 1
29 130 154 245 237 25 18 75 28 75 15z m40 -53 c0 -11 -27 -12 -34 -1 -2 4 4
9 15 9 10 1 19 -2 19 -8z m-2600 -183 c142 -102 185 -132 233 -166 28 -19 52
-40 54 -45 2 -6 -45 -66 -103 -134 -153 -180 -210 -261 -183 -261 20 0 270
285 294 338 19 38 34 40 71 8 l28 -23 -45 -53 c-24 -29 -71 -85 -105 -124
-112 -132 -154 -187 -154 -202 0 -28 24 -10 102 73 70 75 198 243 198 261 0 4
4 13 9 21 7 11 18 7 55 -19 25 -19 46 -35 46 -37 0 -2 -52 -61 -116 -131 -64
-69 -150 -167 -191 -216 -221 -270 -422 -441 -245 -210 80 106 105 144 99 150
-7 7 -94 -95 -135 -158 -20 -32 -74 -110 -119 -175 -45 -64 -80 -119 -78 -121
9 -10 56 31 114 98 34 39 91 97 128 129 38 32 88 83 113 113 25 30 64 70 88
89 51 41 265 274 305 333 16 22 32 51 37 64 5 12 13 22 18 22 11 0 182 -150
182 -160 0 -6 -69 -90 -90 -110 -4 -4 -80 -88 -316 -350 -139 -155 -213 -241
-494 -575 -487 -580 -494 -589 -660 -776 -85 -96 -223 -255 -305 -354 -82 -99
-203 -236 -269 -305 -65 -69 -149 -160 -185 -202 -44 -52 -73 -78 -87 -78 -36
0 -84 12 -84 21 0 5 85 93 188 196 184 184 345 364 458 513 81 106 244 297
348 409 121 130 241 281 222 281 -6 0 -245 -258 -318 -343 -34 -40 -99 -112
-146 -162 -47 -49 -103 -112 -124 -140 -105 -133 -665 -721 -711 -746 -22 -13
-117 -28 -117 -20 0 3 66 80 146 171 473 537 534 610 534 641 0 17 -158 -138
-264 -261 -46 -52 -132 -147 -191 -210 -59 -63 -142 -155 -183 -205 -42 -49
-89 -102 -104 -117 -26 -26 -256 -148 -279 -148 -6 0 13 26 41 58 241 269 642
744 634 751 -20 20 -645 -694 -698 -798 -8 -15 -21 -33 -30 -40 -13 -11 -18
-5 -36 36 -12 26 -26 58 -32 70 -9 19 5 38 143 190 311 340 460 507 540 603
85 102 84 100 67 100 -14 0 -378 -361 -498 -495 -123 -137 -136 -151 -204
-232 -38 -46 -72 -83 -76 -83 -5 0 -15 17 -23 38 -22 54 -37 33 302 403 57 63
141 152 185 199 104 108 349 379 402 445 47 57 67 92 62 106 -4 11 -19 -5
-223 -226 -134 -146 -343 -369 -480 -515 -45 -47 -114 -123 -155 -170 -131
-148 -129 -147 -140 -130 -5 8 -13 30 -16 48 -7 38 -7 38 216 298 118 137 201
243 417 530 29 38 102 123 163 188 60 65 110 127 110 137 0 12 -21 -4 -62 -50
-190 -206 -244 -268 -342 -391 -221 -278 -520 -630 -530 -627 -6 2 -17 17 -25
33 -7 16 -25 41 -39 57 l-26 27 30 32 c16 18 31 35 34 38 3 3 41 46 85 95 43
50 140 153 214 230 75 77 182 192 239 255 56 63 137 153 179 200 43 47 114
127 158 176 44 50 161 179 260 288 99 109 218 242 265 296 47 54 132 152 190
217 58 66 137 160 177 209 39 49 106 132 148 184 42 52 98 122 123 154 165
209 378 475 401 499 39 43 96 35 181 -27z m3620 -74 c0 -4 -37 -30 -82 -58
-80 -48 -188 -137 -188 -155 0 -14 32 -11 60 6 45 26 74 37 115 45 37 8 38 7
20 -7 -11 -8 -41 -26 -67 -39 -49 -25 -63 -50 -29 -50 11 0 17 4 15 8 -3 4 2
5 10 2 9 -3 32 3 51 15 20 12 39 21 42 21 13 0 -34 -43 -57 -52 -16 -7 -20
-12 -12 -15 7 -3 30 6 50 20 20 13 53 27 72 31 l35 6 -36 -23 c-40 -25 -99
-73 -99 -81 0 -10 49 1 72 16 26 16 76 32 62 19 -5 -5 -31 -23 -59 -40 -36
-22 -44 -31 -29 -31 11 0 30 9 42 21 14 12 33 19 49 17 l27 -3 -37 -25 c-55
-37 -53 -53 3 -22 27 15 52 23 57 18 4 -4 0 -13 -11 -20 -73 -44 -73 -69 -1
-37 26 12 59 21 74 20 l26 0 -25 -17 c-14 -9 -38 -29 -55 -44 -28 -26 -29 -27
-8 -28 12 0 37 6 55 14 167 73 380 146 425 146 36 0 143 -37 143 -49 0 -5 -30
-11 -66 -15 -136 -14 -298 -90 -459 -217 -351 -274 -635 -717 -700 -1088 -9
-47 -15 -105 -13 -128 1 -24 -1 -45 -4 -48 -3 -4 -55 36 -115 87 -60 52 -145
121 -188 153 -43 33 -119 97 -167 143 -117 111 -122 128 -85 270 29 115 101
275 168 373 24 35 102 143 175 239 204 270 425 478 612 577 59 30 132 45 132
25z m308 -155 c37 -30 91 -71 121 -91 29 -20 47 -36 39 -36 -30 0 -250 176
-272 218 -4 9 3 5 18 -10 14 -15 56 -51 94 -81z m-18 -163 c0 -8 -32 -33 -43
-34 -4 0 -2 9 5 20 12 19 38 28 38 14z m-1843 -243 c164 -110 293 -211 342
-267 43 -48 32 -56 -17 -12 -21 19 -65 54 -98 77 -120 84 -240 173 -294 216
-30 25 -66 54 -80 65 -14 10 -20 19 -13 20 7 0 79 -45 160 -99z m-849 62 c65
-92 163 -352 106 -278 -16 21 -128 249 -139 285 -9 29 10 25 33 -7z m-450 -70
c-14 -21 -81 -101 -149 -178 -68 -77 -140 -161 -159 -185 -47 -60 -187 -219
-269 -305 -37 -38 -82 -88 -101 -111 -19 -22 -120 -137 -225 -255 -489 -552
-565 -639 -625 -714 -35 -44 -107 -129 -160 -190 -53 -60 -145 -171 -205 -245
-60 -74 -112 -137 -115 -140 -7 -7 -279 -316 -306 -348 -20 -25 -22 -25 -39
-9 -19 20 -25 10 80 134 28 33 127 153 220 268 143 175 457 548 475 565 13 12
179 209 210 250 56 72 277 328 359 415 42 44 130 143 195 220 66 77 161 183
211 235 212 220 515 560 562 631 l26 40 20 -20 20 -20 -25 -38z m65 -136 c-21
-28 -76 -95 -123 -148 -47 -52 -123 -142 -170 -200 -135 -165 -210 -241 -210
-211 0 10 221 283 334 411 50 57 108 125 129 150 47 56 70 76 75 61 2 -5 -14
-34 -35 -63z m-596 -622 c-21 -32 -188 -236 -319 -392 -23 -28 -128 -154 -233
-279 -104 -125 -223 -266 -264 -313 -40 -47 -118 -142 -173 -211 -154 -192
-214 -266 -318 -385 -53 -60 -107 -124 -121 -141 -31 -40 -240 -268 -248 -271
-3 -2 -12 1 -20 6 -15 10 33 70 195 246 85 93 255 299 432 525 41 52 100 124
132 160 31 36 115 135 186 220 162 194 407 485 514 610 45 52 103 120 128 151
49 58 122 123 129 115 3 -2 -6 -21 -20 -41z m-100 -337 c-143 -160 -236 -268
-314 -363 -44 -55 -128 -155 -185 -222 -56 -67 -169 -200 -249 -295 -81 -95
-156 -182 -168 -192 -45 -40 -17 3 62 99 46 55 163 197 261 315 357 431 523
623 599 692 29 25 54 45 56 43 2 -2 -26 -37 -62 -77z m3490 -64 c-3 -3 -12 -4
-19 -1 -8 3 -5 6 6 6 11 1 17 -2 13 -5z m-7047 -675 c95 -15 192 -52 250 -94
28 -21 49 -39 47 -41 -2 -2 -20 3 -40 11 -20 8 -49 15 -64 15 -24 0 -17 -7 48
-50 107 -70 112 -96 11 -59 -13 5 -43 9 -68 9 -61 0 -57 -21 10 -60 86 -48
176 -154 239 -278 77 -151 162 -369 191 -491 l26 -104 -21 -33 c-35 -58 -143
-115 -390 -209 -335 -127 -415 -163 -513 -233 -48 -33 -50 -34 -64 -16 -8 11
-97 186 -197 389 -101 204 -196 388 -211 410 -60 88 -79 144 -79 233 0 67 -2
79 -12 66 -25 -35 -36 -125 -24 -198 6 -38 10 -71 8 -73 -2 -2 -24 8 -48 21
-69 38 -163 66 -224 66 -30 0 -55 2 -55 6 0 3 27 36 59 74 32 37 84 110 115
162 122 203 159 234 330 278 82 21 142 43 190 71 108 61 236 120 281 129 58
11 131 11 205 -1z m-1660 -816 c53 -11 125 -15 245 -14 190 2 273 -13 395 -70
119 -55 151 -99 240 -328 75 -191 175 -381 315 -592 l33 -50 -5 -107 c-5 -92
-2 -116 17 -172 31 -92 84 -178 194 -310 110 -132 156 -213 156 -275 0 -64
-52 -155 -129 -227 -80 -75 -273 -204 -405 -270 l-100 -50 -34 17 c-164 77
-497 468 -760 890 -146 233 -282 425 -406 572 -79 93 -81 187 -6 355 52 118
87 173 153 237 81 79 161 135 292 203 l120 63 -53 3 c-68 4 -185 -28 -277 -76
-104 -54 -231 -183 -279 -284 -20 -42 -43 -107 -51 -145 -23 -107 -18 -275 11
-366 5 -17 3 -17 -33 2 -47 23 -189 61 -231 61 -44 0 -155 -30 -172 -46 -21
-21 -6 -29 110 -58 125 -32 264 -97 340 -160 39 -33 74 -77 120 -154 158 -258
305 -445 735 -932 143 -162 245 -303 245 -338 0 -27 -10 -52 -21 -52 -5 0 -9
9 -9 19 0 10 -8 29 -17 40 -18 22 -18 21 -15 -26 3 -42 -2 -56 -36 -108 -22
-33 -61 -81 -88 -107 -76 -73 -271 -214 -356 -259 -43 -22 -78 -43 -78 -46 0
-4 7 -15 17 -25 15 -17 14 -18 -24 -18 -55 0 -140 54 -260 166 -54 49 -197
169 -318 266 -250 199 -296 245 -458 449 -113 142 -158 187 -299 297 -36 29
-84 74 -106 100 -22 26 -43 45 -46 42 -2 -3 11 -36 30 -74 19 -37 33 -70 31
-72 -12 -13 -68 24 -119 79 -31 33 -60 58 -64 55 -3 -4 8 -33 25 -64 17 -32
31 -61 31 -65 0 -4 -35 6 -77 23 -100 38 -173 47 -208 24 -38 -25 -31 -43 28
-62 72 -23 371 -150 430 -182 32 -17 101 -82 203 -191 180 -191 275 -276 491
-437 86 -64 178 -138 204 -164 66 -66 133 -186 99 -178 -6 2 -21 -22 -33 -52
-35 -86 -81 -146 -201 -266 -89 -88 -126 -118 -186 -148 -66 -32 -81 -36 -121
-31 -27 4 -49 2 -53 -3 -3 -6 18 -29 46 -53 29 -23 73 -63 98 -89 55 -57 288
-245 385 -309 38 -26 91 -56 117 -67 27 -10 48 -22 48 -26 0 -5 28 -7 63 -6
l62 1 -60 7 c-50 6 -44 7 40 6 93 -1 105 1 168 31 89 42 152 95 188 157 50 88
41 109 -96 254 -84 87 -125 112 -125 76 0 -27 -148 -190 -202 -222 -16 -9 -28
-21 -28 -27 0 -13 161 -172 200 -197 l25 -17 -25 0 c-18 -1 -52 27 -133 108
-128 130 -133 103 43 266 65 61 118 115 119 121 2 25 26 33 48 16 44 -35 205
-218 225 -256 49 -95 -28 -213 -208 -316 -122 -70 -252 -95 -349 -69 -60 16
-273 120 -355 173 -161 104 -369 301 -423 399 -9 17 -20 49 -24 70 -7 49 -17
54 -48 23 -31 -31 -67 -33 -146 -10 -172 51 -355 204 -499 416 -75 110 -69
102 -74 97 -4 -5 18 -106 29 -134 6 -15 1 -13 -24 10 -44 40 -111 135 -149
210 -17 33 -38 69 -47 80 -16 19 -16 18 -11 -20 4 -22 9 -69 13 -105 6 -65 6
-65 -14 -47 -12 10 -35 45 -52 77 -36 67 -51 81 -51 48 0 -41 53 -130 123
-205 38 -40 63 -73 56 -73 -31 0 -150 79 -210 140 -64 65 -128 164 -155 239
l-13 36 -1 -57 c-1 -140 98 -308 251 -425 27 -20 49 -41 49 -45 0 -19 -88 -5
-200 33 -66 23 -124 39 -127 36 -10 -10 37 -75 87 -120 27 -24 74 -57 104 -73
31 -16 56 -34 56 -40 0 -5 -29 -41 -65 -80 -35 -38 -64 -73 -65 -77 0 -10 -45
43 -92 108 -74 104 -138 262 -138 342 0 15 14 69 31 118 28 83 32 106 41 294
9 204 9 205 -16 287 -39 123 -36 182 14 282 29 58 57 96 103 138 70 66 94 78
257 128 105 32 119 39 161 83 85 88 165 208 204 305 35 88 38 101 44 243 7
161 9 167 71 251 78 104 189 151 388 164 144 9 189 27 306 120 148 118 234
261 256 425 27 212 52 279 129 348 46 41 94 67 166 90 88 28 98 28 235 0z
m3323 -153 c148 -42 220 -111 269 -259 28 -85 32 -112 36 -236 4 -132 -8 -265
-29 -322 -16 -43 10 -24 35 25 25 49 50 157 64 277 l8 70 13 -74 c13 -72 10
-179 -9 -296 -5 -27 -5 -54 0 -58 12 -13 38 64 64 188 l23 110 11 -51 c7 -32
9 -103 5 -192 -4 -104 -3 -142 5 -142 7 0 12 2 12 5 0 2 9 46 19 97 11 51 23
110 26 132 13 80 26 16 28 -142 2 -188 16 -226 40 -115 8 37 18 90 22 117 12
86 27 35 35 -121 10 -184 19 -214 36 -118 7 39 13 99 14 135 1 89 13 62 38
-85 21 -121 42 -188 63 -201 9 -5 10 6 5 42 -3 27 -9 81 -12 119 l-5 70 21
-58 c11 -32 30 -97 41 -145 12 -47 29 -103 40 -124 23 -45 45 -52 34 -10 -16
58 -43 187 -40 190 5 5 31 -44 60 -112 32 -78 146 -257 152 -240 2 6 -8 41
-22 78 -14 36 -36 96 -50 132 -14 37 -24 69 -22 71 3 2 33 -47 68 -109 62
-112 156 -258 166 -258 11 0 -12 71 -53 160 -23 52 -45 109 -49 125 l-6 30 18
-25 c10 -13 43 -58 73 -100 31 -41 69 -96 85 -122 34 -54 60 -66 44 -20 -5 15
-32 72 -59 127 -27 54 -48 101 -46 102 15 15 131 -122 220 -260 44 -66 63
-297 32 -369 -9 -21 -17 -38 -19 -38 -1 0 -1 37 1 82 2 52 -1 94 -9 113 -12
29 -13 28 -20 -41 -3 -38 -16 -88 -27 -111 -20 -39 -74 -93 -92 -93 -20 0 -18
19 5 40 29 27 50 83 40 108 -6 15 -8 15 -18 -4 -13 -24 -60 -65 -95 -83 -61
-32 -200 -51 -446 -61 -266 -10 -319 -16 -313 -34 7 -23 76 -44 187 -57 130
-14 419 -18 465 -6 19 5 26 5 20 -1 -8 -8 -171 -43 -320 -68 -32 -6 -36 -9
-20 -15 16 -6 13 -8 -14 -8 -19 -1 -32 -4 -28 -7 11 -11 242 -54 295 -54 28 0
52 -4 52 -10 0 -11 -94 -16 -225 -12 l-80 2 35 -19 c19 -11 61 -22 93 -26 31
-4 60 -12 64 -17 4 -8 -11 -9 -48 -4 l-54 7 35 -24 c19 -13 60 -34 90 -46 67
-28 83 -41 50 -41 -31 0 -397 102 -485 135 -120 45 -354 175 -355 196 0 4 16
10 36 14 44 8 84 25 84 37 0 4 -38 8 -84 8 -69 0 -101 6 -173 31 -119 42 -171
69 -152 79 8 4 50 11 93 15 43 4 129 17 191 30 220 46 340 100 443 199 82 80
65 88 -56 27 -43 -21 -118 -51 -167 -66 -50 -15 -103 -34 -120 -42 l-30 -14
26 23 c14 13 62 51 107 86 81 64 103 88 116 130 6 16 3 22 -8 22 -9 0 -16 -4
-16 -9 0 -20 -451 -194 -465 -179 -2 2 35 23 83 48 66 34 104 62 159 118 63
65 163 197 163 215 0 4 -33 -26 -72 -67 -40 -40 -83 -75 -95 -78 l-22 -6 21
52 c47 116 69 189 66 219 -3 29 -6 25 -44 -54 -23 -47 -48 -103 -55 -125 -7
-21 -31 -58 -53 -82 -40 -42 -189 -142 -234 -156 -47 -15 -19 15 78 85 142
101 163 128 210 277 41 129 46 157 30 182 -8 13 -10 13 -14 0 -41 -116 -109
-270 -120 -270 -2 0 12 51 31 113 50 162 56 287 14 287 -4 0 -20 -50 -35 -111
-52 -206 -96 -291 -201 -387 -63 -58 -161 -119 -172 -108 -3 3 2 16 11 28 97
132 153 245 201 403 18 62 20 165 2 189 -25 35 -48 15 -78 -68 -43 -118 -142
-281 -208 -340 -20 -18 -30 -10 -12 9 14 17 122 257 117 262 -10 10 -27 -12
-103 -133 -80 -129 -137 -204 -154 -204 -6 0 2 19 16 43 48 75 136 268 132
285 -3 13 -6 12 -14 -8 -31 -75 -228 -348 -275 -381 -34 -25 -32 -19 18 51 34
48 114 202 114 219 0 23 -18 9 -47 -36 -76 -123 -202 -253 -244 -253 -7 0 12
26 42 58 61 63 96 115 109 162 8 27 7 29 -10 20 -10 -5 -27 -24 -39 -42 -36
-59 -175 -181 -234 -206 -47 -20 -52 -13 -11 17 61 45 180 178 170 189 -3 2
-35 -23 -71 -57 -88 -82 -192 -151 -228 -151 -28 0 -26 4 52 86 45 47 81 92
81 100 0 23 -28 4 -106 -72 -72 -71 -149 -114 -199 -113 -21 1 -24 3 -10 6 24
6 111 56 145 83 37 29 9 24 -78 -12 -73 -31 -84 -33 -197 -33 -105 0 -130 4
-200 28 -225 80 -362 196 -452 384 -34 71 -35 74 -31 182 2 92 6 114 24 138
47 63 185 127 534 248 150 52 442 190 825 390 167 87 245 121 339 145 92 24
136 24 219 0z m1460 -1439 c27 -25 61 -71 77 -102 47 -91 71 -247 51 -319 -6
-19 -9 -8 -15 45 -4 39 -18 101 -31 138 -25 72 -96 205 -130 241 -11 12 -27
30 -35 41 -31 38 34 4 83 -44z m-2774 -491 c68 -89 141 -200 141 -212 0 -22
28 -1 98 74 86 89 131 106 64 23 -63 -78 -138 -155 -150 -155 -12 0 -93 117
-180 260 -80 132 -67 136 27 10z m189 -104 c-18 -31 -34 -53 -36 -48 -3 10 59
114 65 108 2 -2 -11 -29 -29 -60z m-65 39 c4 -8 2 -17 -2 -20 -5 -2 -11 4 -14
15 -6 23 8 27 16 5z m1135 -201 c98 -36 233 -92 302 -124 218 -101 423 -188
495 -210 39 -11 120 -41 182 -66 61 -24 125 -47 142 -50 17 -4 31 -11 31 -17
0 -19 -124 1 -233 37 -60 20 -115 36 -124 36 -51 0 105 -84 217 -117 33 -10
58 -22 56 -28 -6 -19 -121 -6 -226 24 -58 17 -109 31 -113 31 -44 0 133 -89
256 -129 67 -23 87 -41 44 -41 -40 0 -259 67 -352 108 -103 45 -145 57 -145
42 0 -5 5 -10 11 -10 6 0 47 -26 92 -58 110 -79 321 -206 385 -233 47 -19 68
-39 42 -39 -5 0 -89 41 -187 91 -283 145 -662 319 -691 319 -36 -1 214 -201
353 -283 39 -23 108 -68 155 -100 47 -32 116 -80 154 -105 l69 -47 -36 -3
c-20 -2 -37 -8 -37 -13 0 -11 70 -43 118 -54 19 -4 31 -12 29 -18 -8 -23 -156
-11 -282 22 -65 17 -122 31 -128 31 -41 0 166 -129 258 -160 94 -32 90 -29 77
-42 -14 -14 -121 6 -232 45 -108 37 -145 56 -254 130 -205 137 -415 242 -365
181 16 -19 316 -218 444 -294 50 -29 108 -64 129 -78 22 -14 83 -44 135 -67
52 -23 96 -46 98 -52 7 -19 -142 8 -260 47 -64 22 -125 40 -134 40 -31 0 13
-35 135 -108 65 -39 126 -78 137 -87 19 -15 16 -16 -44 -11 -35 3 -116 23
-180 45 -64 21 -117 38 -119 36 -2 -2 12 -19 31 -38 40 -40 216 -136 297 -162
51 -17 53 -19 31 -29 -28 -12 -206 21 -346 65 -96 31 -125 35 -125 19 0 -25
117 -89 320 -175 101 -43 122 -60 65 -50 -108 19 -358 85 -462 122 -39 14 -77
23 -84 21 -23 -8 91 -88 195 -138 56 -27 139 -61 186 -77 67 -22 79 -29 57
-31 -79 -9 -382 81 -566 169 -57 27 -106 47 -109 44 -10 -10 75 -81 158 -131
151 -92 305 -155 475 -195 l100 -24 -59 -3 c-136 -7 -407 71 -701 203 l-60 27
40 -41 c135 -140 429 -267 685 -296 74 -9 92 -14 84 -27 -19 -31 -339 26 -518
91 -28 11 -114 43 -191 71 -185 68 -204 74 -211 67 -18 -17 183 -159 326 -229
95 -47 236 -98 271 -98 11 0 19 -4 19 -9 0 -6 -17 -7 -37 -5 -139 19 -264 57
-488 146 -335 135 -422 151 -305 59 83 -66 271 -167 463 -250 61 -26 168 -55
282 -76 111 -21 130 -35 48 -35 -174 0 -450 87 -863 273 -155 70 -212 89 -192
64 25 -30 224 -159 367 -237 145 -81 239 -140 231 -147 -2 -2 -25 6 -52 18
-27 12 -115 47 -195 79 -160 64 -247 106 -364 175 -86 51 -96 54 -69 24 41
-46 185 -149 309 -222 72 -42 126 -77 121 -77 -29 0 -163 56 -306 127 -91 46
-166 83 -167 83 -11 0 3 -29 36 -74 45 -60 132 -127 304 -232 144 -88 239
-127 382 -158 77 -16 104 -26 92 -31 -17 -7 -390 8 -537 21 l-55 5 24 -21 c13
-11 62 -32 110 -46 47 -14 95 -30 106 -35 22 -10 -279 -3 -312 7 -14 4 -13 2
5 -14 27 -25 199 -67 336 -83 121 -14 362 -7 466 15 41 8 115 24 163 36 49 12
107 20 130 18 l42 -3 -40 -27 c-55 -39 -161 -71 -370 -114 -216 -44 -251 -56
-140 -50 109 7 291 46 433 95 135 46 192 59 192 42 0 -6 -5 -11 -11 -11 -6 0
-59 -24 -118 -54 -122 -61 -186 -84 -363 -132 -92 -24 -149 -46 -205 -79 -43
-24 -116 -59 -163 -76 -103 -38 -355 -102 -488 -125 -129 -22 -222 -69 -324
-164 -43 -39 -78 -70 -78 -67 0 3 20 41 45 85 43 77 55 110 36 97 -5 -3 -33
-43 -61 -90 -57 -92 -109 -151 -149 -169 -14 -6 -51 -30 -82 -53 -31 -24 -59
-43 -63 -43 -4 0 11 26 32 58 99 145 196 383 208 511 8 80 -6 74 -31 -14 -15
-55 -67 -169 -84 -188 -4 -4 2 37 15 92 26 117 43 241 33 241 -3 0 -17 -28
-29 -62 -87 -237 -174 -419 -255 -533 -78 -110 -257 -263 -383 -326 -34 -18
-64 -30 -67 -28 -2 3 33 34 78 69 158 125 265 237 350 365 77 117 158 263 138
251 -5 -3 -36 -41 -68 -84 -83 -111 -225 -263 -302 -325 -115 -93 -254 -188
-326 -224 -146 -74 -200 -76 -74 -3 165 97 439 336 492 428 24 42 9 41 -34 -4
-89 -94 -311 -267 -434 -339 -81 -47 -172 -88 -187 -83 -5 2 34 35 88 73 99
70 294 248 283 259 -3 3 -32 -17 -65 -45 -127 -109 -355 -261 -369 -247 -3 3
21 29 52 59 113 106 171 166 183 190 11 19 5 17 -28 -13 -23 -21 -74 -62 -114
-92 -77 -57 -96 -74 -129 -118 -11 -16 -27 -28 -35 -28 -17 0 -19 34 -1 48 17
14 81 141 74 148 -3 3 -18 -12 -33 -33 -42 -57 -86 -103 -100 -103 -26 0 -22
31 9 72 46 61 53 73 36 63 -8 -4 -28 -19 -46 -31 -35 -26 -43 -29 -43 -14 0 6
-20 45 -44 88 -25 42 -64 136 -87 207 -24 72 -45 122 -47 112 -3 -17 7 -109
23 -207 8 -50 -51 97 -64 161 -6 27 -11 67 -11 89 0 46 -14 59 -31 29 -22 -42
0 -184 50 -309 l21 -55 -25 30 c-41 47 -102 184 -116 255 -19 105 -32 98 -27
-15 4 -71 13 -122 31 -175 14 -41 24 -76 22 -78 -2 -2 -20 18 -40 45 -54 70
-126 226 -138 300 -11 65 -26 84 -28 36 -5 -85 9 -146 57 -257 19 -43 33 -81
30 -83 -9 -9 -69 82 -107 163 -44 92 -66 169 -75 261 -11 102 -29 62 -28 -60
1 -91 5 -113 37 -199 20 -54 33 -98 29 -98 -11 0 -79 120 -97 170 -22 60 -42
167 -51 268 -3 45 -10 82 -15 82 -26 0 -30 -229 -4 -316 9 -31 14 -58 12 -60
-8 -8 -36 43 -59 107 -21 58 -23 81 -22 237 0 94 -3 172 -6 172 -4 0 -16 -26
-26 -57 -22 -66 -25 -250 -6 -315 6 -21 6 -38 2 -38 -5 0 -21 36 -35 81 -34
109 -33 186 5 330 16 63 33 125 36 139 6 22 5 23 -9 10 -31 -31 -88 -192 -99
-282 -13 -106 -28 -97 -28 17 0 199 119 468 268 608 64 59 85 67 175 67 177 1
265 32 477 170 57 38 106 67 108 65 7 -7 -23 -52 -84 -125 -112 -133 -55 -97
124 78 98 97 112 108 112 85 0 -40 -26 -133 -96 -346 -36 -109 -64 -203 -62
-209 6 -18 63 98 123 252 60 150 123 285 131 278 4 -5 -9 -50 -121 -413 -50
-162 -56 -185 -47 -185 10 1 82 155 131 278 46 114 90 206 96 200 5 -5 -35
-131 -97 -304 -46 -130 -69 -224 -56 -224 13 0 100 187 128 275 12 39 27 75
32 80 13 13 13 12 -57 -215 -83 -270 -115 -386 -115 -422 0 -46 12 -27 58 92
148 381 186 483 236 631 46 134 58 184 63 255 6 84 8 91 39 120 34 33 105 58
145 52 33 -4 81 -79 114 -178 15 -44 31 -80 36 -80 4 0 7 6 4 13 -50 153 -66
227 -47 227 5 0 21 -37 37 -82 94 -273 235 -503 377 -616 64 -50 153 -102 175
-102 18 0 16 15 -4 31 -40 33 -166 195 -211 271 -63 107 -133 261 -167 368
-46 143 -46 293 1 458 15 54 34 62 34 14 0 -51 50 -221 91 -314 83 -186 217
-352 383 -475 92 -68 115 -56 43 24 -60 68 -129 160 -160 215 -44 75 -116 267
-122 322 l-6 51 50 -101 c46 -94 75 -134 87 -122 3 3 -10 39 -29 79 -46 98
-72 178 -92 277 -25 123 -14 129 24 14 33 -101 100 -227 158 -296 42 -51 48
-43 12 17 -122 206 -206 464 -181 552 9 29 10 28 21 -28 7 -32 23 -90 36 -128
33 -96 135 -281 135 -244 0 4 -25 69 -55 145 -30 76 -60 162 -65 191 -12 64
-13 169 -1 188 10 15 11 9 32 -109 12 -70 42 -151 71 -189 25 -32 23 -21 -17
135 -24 91 -35 158 -35 205 0 79 16 92 25 22 18 -131 75 -293 104 -293 5 0 -1
39 -14 86 -13 47 -32 133 -41 192 -16 103 -16 109 2 167 l18 60 6 -105 c7
-107 25 -190 43 -190 5 0 7 16 4 38 -4 20 -9 89 -13 152 -6 98 -4 121 11 155
l18 40 14 -124 c7 -68 18 -131 23 -140 20 -36 22 23 6 151 l-16 130 45 72 c24
40 73 105 107 144 l63 72 7 -64 c6 -63 42 -165 54 -153 4 3 -3 43 -14 89 -11
46 -23 101 -26 123 l-5 40 14 -40 c7 -22 14 -50 14 -62 1 -12 4 -24 9 -26 4
-3 5 30 4 73 -4 73 7 120 27 120 5 0 16 -25 26 -55 17 -54 82 -165 97 -165 4
0 -1 21 -11 48 -42 105 -50 129 -61 169 -10 39 -9 43 21 73 17 17 33 30 34 28
1 -2 9 -16 18 -33 19 -37 122 -151 149 -166 18 -10 19 -9 8 12 -7 12 -32 52
-56 89 -53 82 -67 117 -59 147 5 22 35 33 35 13 0 -14 188 -179 254 -222 110
-71 99 -48 -58 121 -64 69 -116 133 -116 143 0 10 2 18 5 18 3 0 31 -24 64
-54 61 -57 212 -151 258 -162 l28 -7 -25 28 c-14 15 -57 54 -96 86 -90 74
-183 187 -164 199 9 5 23 1 38 -11 23 -18 62 -26 62 -13 0 3 -10 23 -22 44
-16 26 -20 42 -13 49 12 12 145 69 163 70 8 1 93 -29 190 -65z m-1363 -138
c118 -190 144 -270 110 -337 -54 -103 -190 -234 -308 -295 -43 -23 -124 -44
-167 -44 -61 0 -137 44 -219 128 -80 80 -197 220 -190 226 7 7 32 -16 134
-128 121 -132 197 -186 264 -186 69 0 119 17 196 68 135 89 255 235 255 309 0
15 -30 91 -66 168 -126 269 -128 282 -9 91z m-124 -94 c-17 -31 -160 -151
-262 -220 -25 -16 -51 -37 -58 -46 -15 -18 -41 -21 -41 -5 0 11 32 40 116 104
28 22 93 75 144 118 84 72 124 91 101 49z m44 -45 c1 -7 6 -11 13 -9 7 1 11
-1 11 -5 -3 -19 2 -33 17 -47 8 -9 12 -16 7 -16 -13 0 -63 68 -63 86 0 19 15
10 15 -9z m-25 -72 c14 -19 14 -19 -2 -6 -10 7 -18 18 -18 24 0 6 1 8 3 6 1
-2 9 -13 17 -24z m-46 -11 c5 -14 4 -15 -9 -4 -17 14 -19 20 -6 20 5 0 12 -7
15 -16z m-31 -49 c15 -19 25 -35 21 -35 -6 0 -64 59 -64 66 0 13 19 -1 43 -31z
m-52 -12 c13 -16 12 -17 -3 -4 -10 7 -18 15 -18 17 0 8 8 3 21 -13z m99 -48
c7 -9 8 -15 2 -15 -5 0 -12 7 -16 15 -3 8 -4 15 -2 15 2 0 9 -7 16 -15z m60
-45 c7 -13 7 -20 1 -20 -6 0 -15 9 -21 20 -7 13 -7 20 -1 20 6 0 15 -9 21 -20z
m-30 -34 c0 -27 -10 -14 -16 20 -3 22 -2 25 6 14 5 -8 10 -24 10 -34z m-41
-45 c0 -14 -1 -14 -6 -1 -3 8 -13 24 -22 35 -16 20 -16 20 7 1 12 -11 22 -26
21 -35z m-154 -104 c28 -15 28 -16 7 -17 -24 0 -115 78 -134 115 -6 11 14 -3
43 -31 30 -29 68 -59 84 -67z m115 83 c0 -5 -2 -10 -4 -10 -3 0 -8 5 -11 10
-3 6 -1 10 4 10 6 0 11 -4 11 -10z m-594 -242 c92 -116 112 -144 130 -180 17
-36 17 -37 -15 -103 -72 -155 -336 -343 -482 -345 -40 0 -102 37 -220 132
-129 104 -387 359 -334 330 11 -5 31 -22 45 -37 31 -34 215 -188 342 -288 107
-83 150 -102 206 -92 106 19 328 182 390 285 42 71 41 104 -5 171 -41 61 -114
152 -125 157 -5 2 -8 10 -8 18 0 30 28 12 76 -48z m-86 10 c0 -16 -83 -93
-205 -190 -55 -44 -104 -84 -109 -89 -6 -5 15 -34 50 -71 74 -78 119 -137 111
-145 -4 -3 -17 7 -29 23 -46 58 -110 130 -146 162 -31 28 -34 34 -21 46 43 39
307 254 324 264 25 14 25 14 25 0z m5 -108 l20 -25 -22 19 c-13 11 -23 24 -23
29 0 6 1 8 3 6 1 -2 11 -15 22 -29z m-24 -36 c13 -14 17 -23 9 -19 -13 5 -46
45 -37 45 2 0 14 -11 28 -26z m131 -26 c18 -23 28 -39 21 -35 -6 4 -26 26 -45
49 -18 23 -28 39 -21 35 6 -4 26 -26 45 -49z m-96 -104 c46 -53 58 -84 33 -84
-4 0 -6 6 -3 13 2 7 -15 35 -38 63 -24 27 -58 70 -77 94 l-33 45 33 -36 c19
-20 57 -63 85 -95z m8 -103 c-6 -6 -62 54 -135 144 -23 28 0 7 50 -44 50 -52
88 -97 85 -100z m-194 139 c0 -5 -2 -10 -4 -10 -3 0 -8 5 -11 10 -3 6 -1 10 4
10 6 0 11 -4 11 -10z m40 -45 c13 -14 21 -25 18 -25 -2 0 -15 11 -28 25 -13
14 -21 25 -18 25 2 0 15 -11 28 -25z m-100 -10 c14 -19 14 -19 -2 -6 -10 7
-18 18 -18 24 0 6 1 8 3 6 1 -2 9 -13 17 -24z m92 -126 c25 -27 57 -41 43 -19
-3 6 1 7 9 4 9 -3 16 -1 16 5 0 6 7 11 15 11 21 0 19 12 -7 46 l-23 29 37 -30
c20 -16 37 -32 37 -35 0 -3 -22 -17 -50 -33 l-50 -27 -27 31 c-15 18 -35 46
-45 63 -17 30 -17 30 0 7 10 -13 30 -36 45 -52z m-2594 -30 c17 -16 32 -33 32
-37 0 -4 -34 -41 -76 -82 -41 -41 -101 -106 -132 -145 -74 -92 -208 -239 -413
-455 -92 -96 -209 -224 -260 -285 -50 -60 -116 -137 -146 -171 -29 -33 -94
-112 -143 -175 -50 -63 -150 -190 -222 -282 -143 -182 -174 -225 -165 -234 6
-6 54 22 72 42 115 125 205 234 326 395 148 198 392 502 466 582 37 40 134
141 214 225 81 83 183 196 227 250 138 170 267 308 290 311 32 5 38 -22 12
-55 -12 -15 -72 -82 -134 -148 -62 -66 -151 -163 -197 -216 -46 -52 -138 -156
-204 -229 -362 -403 -466 -526 -595 -705 -51 -71 -114 -155 -140 -185 -25 -30
-76 -93 -112 -140 -37 -47 -90 -113 -119 -148 -28 -34 -49 -66 -45 -69 9 -9
112 93 199 197 39 47 119 139 177 205 58 66 194 226 302 355 216 258 252 300
412 479 60 67 152 175 205 240 53 65 142 172 197 238 56 67 103 126 105 132 5
14 79 -13 79 -29 0 -12 -79 -107 -187 -226 -86 -94 -160 -194 -143 -194 6 0
24 13 38 28 116 120 236 259 281 325 18 26 36 47 40 47 5 0 19 -8 32 -19 l23
-19 -44 -58 c-25 -32 -114 -136 -198 -232 -84 -96 -165 -191 -180 -211 -14
-20 -44 -56 -64 -80 -41 -47 -49 -68 -20 -52 28 16 62 50 166 166 94 105 314
374 346 424 l15 23 40 -23 c22 -12 42 -24 44 -25 2 -2 -18 -29 -45 -61 -153
-183 -392 -461 -476 -555 -86 -95 -110 -128 -93 -128 17 0 156 136 240 235 55
64 148 173 207 241 58 67 125 148 148 178 28 39 47 56 63 56 25 -1 57 -22 57
-38 0 -6 -33 -51 -73 -99 -101 -121 -147 -183 -147 -196 0 -16 45 29 113 113
70 87 138 160 149 160 4 0 23 -14 43 -31 l35 -31 -73 -82 c-119 -132 -209
-244 -299 -371 -47 -66 -116 -157 -154 -201 -141 -167 -658 -837 -745 -965
-13 -19 -79 -105 -147 -190 -67 -85 -174 -226 -237 -314 -143 -199 -234 -313
-259 -321 -11 -3 -25 0 -34 9 -18 19 -25 9 164 259 72 95 177 241 234 323 57
83 190 263 294 400 105 138 219 288 253 335 101 135 268 350 315 404 24 27 35
45 26 40 -52 -29 -137 -119 -231 -246 -201 -268 -397 -515 -668 -839 -123
-147 -371 -461 -445 -563 l-21 -29 -41 29 c-23 16 -42 35 -42 42 0 6 -6 12
-14 12 -7 0 -44 28 -82 63 -166 152 -338 276 -504 366 -90 48 -216 101 -241
101 -29 0 -32 18 -10 54 50 81 130 135 321 221 219 99 344 195 502 387 87 106
258 303 367 423 36 38 263 274 505 524 426 438 573 581 599 581 7 0 27 -14 45
-31z m1971 -273 c0 -6 -8 0 -17 14 -9 14 -37 48 -62 76 -26 29 -18 23 18 -14
34 -35 62 -69 61 -76z m-30 -77 c27 -32 28 -36 12 -46 -15 -10 -17 -8 -14 10
3 17 -16 42 -76 102 -44 44 -80 87 -81 95 0 14 95 -81 159 -161z m-159 109 c0
-6 -6 -5 -15 2 -8 7 -15 14 -15 16 0 2 7 1 15 -2 8 -4 15 -11 15 -16z m31 -35
c13 -16 12 -17 -3 -4 -10 7 -18 15 -18 17 0 8 8 3 21 -13z m-98 -23 c9 -11 13
-20 7 -20 -5 0 -14 9 -20 20 -6 11 -9 20 -8 20 2 0 11 -9 21 -20z m157 -35
c19 -19 32 -35 29 -35 -3 0 -20 16 -39 35 -19 19 -32 35 -29 35 3 0 20 -16 39
-35z m120 7 c0 -15 -2 -15 -10 -2 -13 20 -13 33 0 25 6 -3 10 -14 10 -23z
m-263 -75 c56 -54 104 -92 112 -89 8 3 11 0 7 -7 -14 -21 -34 -10 -93 52 -32
34 -78 79 -101 100 -23 20 -38 37 -33 37 5 0 53 -42 108 -93z m61 32 c20 -23
44 -52 52 -65 19 -31 34 -30 59 4 11 15 21 22 21 16 0 -5 -14 -23 -30 -39 -26
-25 -32 -27 -40 -15 -21 34 -94 120 -101 120 -5 0 -9 5 -9 10 0 17 9 11 48
-31z m78 -10 c16 -16 22 -28 14 -24 -13 5 -56 55 -47 55 2 0 16 -14 33 -31z
m-1192 -75 c9 -4 21 -15 27 -25 8 -15 2 -27 -29 -61 -67 -74 -201 -247 -264
-342 -53 -79 -403 -536 -464 -606 -12 -14 -48 -56 -79 -95 -31 -38 -80 -94
-109 -125 -54 -58 -162 -151 -155 -134 46 111 383 578 714 989 66 83 143 179
170 215 65 86 155 190 165 190 5 0 16 -3 24 -6z m101 -87 c21 -16 25 -11 -224
-327 -151 -192 -227 -280 -243 -280 -20 0 47 104 186 289 77 102 146 196 203
279 38 55 48 60 78 39z m90 -87 c9 -14 -66 -117 -215 -295 -69 -82 -144 -173
-165 -201 -68 -87 -251 -302 -374 -439 -137 -152 -384 -449 -473 -567 -34 -46
-112 -146 -173 -223 -158 -198 -317 -413 -393 -530 -101 -155 -152 -217 -168
-204 -22 18 -17 36 35 112 77 114 376 523 455 622 40 50 116 146 171 215 55
69 180 220 280 335 99 116 202 237 230 270 103 124 219 251 266 293 26 23 74
77 106 120 32 42 110 142 173 222 63 80 135 172 159 205 56 76 72 88 86 65z
m91 -117 c-14 -26 -43 -63 -191 -245 -82 -101 -192 -214 -200 -207 -11 11 306
407 378 472 26 23 32 15 13 -20z m-515 -651 c-5 -10 -51 -64 -101 -121 -50
-57 -135 -156 -189 -220 -101 -119 -141 -161 -141 -146 0 5 8 18 19 29 10 12
42 53 70 91 48 64 338 385 348 385 2 0 -1 -8 -6 -18z m5619 -547 c0 -2 -28
-37 -61 -76 -34 -39 -84 -98 -110 -132 -46 -57 -239 -235 -239 -221 0 4 62 71
138 148 75 78 164 174 197 214 53 63 75 83 75 67z m-6530 -91 c0 -9 -119 -162
-177 -227 -67 -75 -284 -364 -385 -513 -87 -128 -147 -208 -158 -212 -14 -5
-32 38 -22 51 5 7 32 44 60 82 188 258 369 486 566 712 87 100 116 127 116
107z m6391 -203 c-34 -44 -67 -83 -74 -87 -14 -9 -17 -14 68 99 32 42 60 75
62 73 3 -3 -22 -41 -56 -85z m-76 -201 c-21 -22 -44 -40 -49 -40 -6 0 8 18 32
40 23 22 45 40 49 40 4 0 -11 -18 -32 -40z m-8104 -47 c13 -16 12 -17 -3 -4
-10 7 -18 15 -18 17 0 8 8 3 21 -13z m162 -150 c20 -16 75 -57 123 -93 77 -58
380 -365 403 -409 10 -18 -159 149 -229 226 -56 62 -190 179 -281 245 -38 28
-69 52 -69 54 0 11 21 1 53 -23z m197 -70 c14 -12 62 -50 106 -85 154 -120
554 -554 542 -589 -2 -6 -31 25 -66 70 -108 139 -469 505 -572 580 -52 38
-130 107 -130 116 0 7 64 -42 120 -92z m-270 52 c13 -14 20 -25 16 -25 -12 0
-56 32 -56 41 0 16 16 10 40 -16z m35 -100 c89 -109 406 -407 502 -471 46 -30
91 -72 52 -48 -160 98 -553 462 -599 554 -25 50 -24 50 45 -35z m193 -103
c185 -175 284 -263 374 -331 53 -40 177 -152 148 -134 -124 78 -742 633 -706
633 4 0 87 -75 184 -168z m4917 6 c-6 -15 -78 -58 -96 -58 -11 0 79 67 93 69
4 1 5 -5 3 -11z m-3755 -86 c0 -14 -147 -257 -164 -271 -36 -30 -14 35 44 129
71 115 120 173 120 142z m6773 -180 c-28 -63 -51 -84 -39 -36 8 29 55 108 62
102 2 -3 -8 -32 -23 -66z m106 -29 c-31 -95 -76 -193 -88 -193 -14 0 -14 2 5
68 15 50 49 129 84 192 23 43 23 4 -1 -67z m78 -55 c-6 -40 -75 -219 -90 -235
-17 -16 -4 53 22 124 58 158 79 192 68 111z m-3297 -58 c0 -5 -13 -10 -30 -10
-16 0 -30 5 -30 10 0 6 14 10 30 10 17 0 30 -4 30 -10z m4192 -67 c42 -44 110
-167 255 -458 74 -148 138 -274 142 -280 16 -20 239 -461 246 -485 6 -22 5
-23 -8 -10 -13 13 -54 88 -215 390 -24 47 -59 112 -77 145 -18 33 -101 195
-185 360 -84 165 -163 315 -177 333 -29 39 -17 42 19 5z m412 -423 c56 -79
156 -236 156 -245 0 -16 -26 16 -96 118 -43 62 -104 148 -136 193 -32 44 -58
85 -58 90 0 14 74 -72 134 -156z m100 -1079 c153 -231 180 -308 41 -114 -44
60 -125 200 -125 216 0 19 22 -9 84 -102z"/>
<path d="M11808 17688 c6 -6 18 -8 28 -6 14 3 12 5 -9 10 -19 3 -25 2 -19 -4z"/>
<path d="M12140 17656 c36 -19 208 -61 217 -53 3 4 3 10 0 13 -9 9 -197 54
-222 54 -18 -1 -17 -2 5 -14z"/>
<path d="M11915 17590 c3 -5 21 -10 38 -10 24 0 28 3 17 10 -20 13 -63 13 -55
0z"/>
<path d="M12578 17593 c6 -2 18 -2 25 0 6 3 1 5 -13 5 -14 0 -19 -2 -12 -5z"/>
<path d="M12760 17590 c0 -13 28 -25 225 -96 178 -63 274 -103 415 -171 197
-95 305 -128 340 -103 13 9 11 13 -10 30 -90 74 -501 233 -785 305 -187 47
-185 47 -185 35z"/>
<path d="M12138 17578 c7 -8 31 -19 55 -22 23 -4 87 -23 142 -43 125 -44 186
-69 350 -143 59 -27 170 -73 240 -100 69 -27 295 -141 443 -224 76 -42 128
-66 139 -62 14 6 13 9 -6 29 -23 25 -48 40 -221 129 -147 75 -280 134 -450
196 -74 28 -198 77 -275 109 -146 63 -228 91 -332 118 -34 8 -70 18 -80 22
-15 6 -16 4 -5 -9z"/>
<path d="M12575 17550 c3 -6 16 -10 29 -10 49 0 405 -133 604 -227 314 -147
429 -196 435 -185 3 4 1 17 -4 30 -21 55 -607 294 -883 361 -154 38 -189 43
-181 31z"/>
<path d="M12605 17480 c-3 -4 48 -27 113 -50 64 -24 167 -63 227 -88 130 -53
530 -243 585 -277 51 -32 71 -15 28 25 -45 41 -273 152 -528 257 -214 88 -414
151 -425 133z"/>
<path d="M12370 17417 c14 -6 63 -28 110 -50 47 -21 144 -63 215 -94 312 -133
490 -221 630 -312 114 -75 161 -66 60 11 -86 65 -525 278 -645 313 -14 4 -61
22 -105 41 -132 55 -264 104 -277 103 -7 0 -2 -5 12 -12z"/>
<path d="M13956 17138 c5 -7 23 -34 42 -60 39 -55 34 -61 -15 -18 -34 31 -60
40 -47 18 4 -7 19 -29 34 -48 44 -57 43 -61 -7 -35 -66 34 -108 42 -116 20 -5
-10 3 -25 21 -42 l27 -25 -27 16 c-74 44 13 -47 191 -200 123 -106 181 -151
321 -250 112 -78 202 -154 184 -154 -18 0 -200 134 -369 270 -27 23 -73 56
-101 75 -28 19 -84 64 -125 100 -81 72 -183 138 -207 133 -10 -2 9 -23 51 -58
36 -30 66 -58 66 -62 1 -4 -25 8 -56 26 -58 33 -125 52 -143 41 -5 -3 14 -27
43 -52 74 -66 167 -154 167 -159 0 -3 -26 13 -57 34 -115 77 -192 115 -221
107 -26 -6 -26 -8 48 -75 41 -38 107 -90 145 -116 104 -69 175 -117 330 -222
175 -119 203 -138 290 -194 77 -50 167 -127 148 -128 -6 0 -24 11 -40 24 -70
59 -644 441 -823 548 -121 73 -180 98 -180 79 0 -11 206 -194 298 -264 34 -27
62 -50 62 -53 0 -5 -23 10 -195 131 -116 81 -220 139 -234 131 -5 -3 -11 -15
-14 -26 -4 -15 37 -60 193 -210 109 -105 220 -208 245 -228 26 -20 106 -86
178 -147 71 -60 180 -149 241 -198 61 -48 129 -103 152 -121 22 -19 58 -44 78
-56 39 -22 44 -21 83 17 7 6 18 13 24 15 8 3 6 14 -6 37 l-17 34 29 -20 28
-19 80 80 c44 44 72 74 62 66 -15 -11 -20 -11 -30 0 -10 10 -9 11 2 5 9 -5 19
-2 27 9 7 10 15 13 18 7 8 -12 74 23 166 88 138 97 189 163 190 244 0 79 -30
110 -250 254 -169 111 -297 201 -520 364 -130 95 -263 180 -270 173 -3 -3 9
-15 25 -27 47 -35 106 -89 101 -95 -3 -2 -41 29 -86 69 -96 88 -196 159 -222
159 -13 0 -17 -4 -12 -12z m85 -225 c8 -10 -5 -3 -28 16 -24 18 -43 35 -43 38
0 7 55 -34 71 -54z m279 -13 c0 -5 -2 -10 -4 -10 -3 0 -8 5 -11 10 -3 6 -1 10
4 10 6 0 11 -4 11 -10z m-171 -61 c81 -60 121 -101 66 -65 -34 21 -155 118
-155 123 0 8 14 -1 89 -58z m395 -98 c-2 -3 -12 3 -22 13 -16 17 -16 18 5 5
12 -7 20 -15 17 -18z m-439 -119 c-3 -3 -11 0 -18 7 -9 10 -8 11 6 5 10 -3 15
-9 12 -12z m-43 -55 c7 -7 69 -53 138 -102 69 -48 157 -116 195 -149 39 -34
86 -74 105 -89 19 -16 28 -25 20 -21 -27 14 -114 76 -164 118 -27 23 -108 84
-179 137 -72 52 -132 100 -135 107 -5 16 3 15 20 -1z m712 -13 c3 -8 2 -12 -4
-9 -6 3 -10 10 -10 16 0 14 7 11 14 -7z m-329 -184 c57 -42 107 -91 101 -97
-4 -4 -130 88 -151 111 -5 6 -45 37 -87 69 -43 31 -78 60 -78 63 0 6 117 -74
215 -146z m525 70 c0 -5 -2 -10 -4 -10 -3 0 -8 5 -11 10 -3 6 -1 10 4 10 6 0
11 -4 11 -10z m-889 -217 c13 -15 12 -15 -8 -4 -24 12 -29 21 -14 21 5 0 15
-7 22 -17z m1039 -7 c0 -11 -19 -15 -25 -6 -3 5 1 10 9 10 9 0 16 -2 16 -4z
m-95 -17 c11 -17 0 -20 -21 -4 -17 13 -17 14 -2 15 9 0 20 -5 23 -11z m-360
-19 c3 -6 -1 -7 -9 -4 -18 7 -21 14 -7 14 6 0 13 -4 16 -10z m56 -47 c13 -16
12 -17 -3 -4 -17 13 -22 21 -14 21 2 0 10 -8 17 -17z m-393 -83 c178 -127 232
-169 232 -182 0 -7 -7 -5 -17 4 -10 9 -94 73 -187 142 -92 69 -165 126 -161
126 4 0 64 -41 133 -90z m471 16 c36 -38 21 -32 -25 10 -21 21 -30 32 -19 26
11 -5 31 -22 44 -36z m-43 -144 c-4 -3 -14 2 -24 12 -16 18 -16 18 6 6 13 -6
21 -14 18 -18z m-62 -98 c9 -3 16 -10 16 -15 0 -14 -24 -11 -46 6 -16 12 -17
14 -2 15 9 0 23 -3 32 -6z"/>
<path d="M13060 17005 c0 -3 24 -20 53 -39 29 -19 74 -55 101 -80 64 -60 83
-60 26 0 -30 30 -37 42 -22 34 13 -6 26 -9 29 -6 3 3 -2 9 -13 13 -10 4 -48
24 -83 45 -60 35 -91 46 -91 33z"/>
<path d="M13258 16924 c14 -27 112 -81 112 -62 0 13 -30 40 -70 63 -13 8 -13
7 0 -10 13 -17 13 -18 0 -10 -8 4 -24 15 -34 24 -18 15 -18 15 -8 -5z"/>
<path d="M13387 16573 c-3 -2 11 -19 31 -37 70 -61 300 -221 308 -214 5 5 -82
81 -195 170 -80 63 -133 93 -144 81z"/>
<path d="M13330 16475 c0 -8 4 -15 9 -15 30 0 360 -274 347 -288 -3 -2 14 -20
37 -40 23 -20 71 -64 107 -97 36 -33 110 -94 165 -134 55 -41 134 -102 175
-136 84 -68 140 -109 219 -161 41 -26 56 -32 62 -22 14 21 7 30 -88 103 -51
39 -125 97 -165 131 -87 72 -249 194 -376 282 -98 69 -103 73 -207 182 -38 41
-56 64 -40 52 17 -13 57 -41 90 -64 66 -46 448 -346 560 -441 89 -74 256 -187
278 -187 36 0 10 34 -79 103 -185 142 -668 496 -755 553 -59 38 -148 97 -199
132 -89 61 -140 78 -140 47z"/>
<path d="M13284 16408 c-4 -7 -2 -14 4 -16 7 -2 36 -23 65 -46 28 -23 97 -75
152 -116 55 -40 116 -86 135 -100 19 -15 51 -35 70 -44 l35 -17 -40 36 c-22
20 -53 45 -70 57 -16 11 -22 18 -12 14 35 -11 15 13 -46 57 -109 78 -251 173
-269 180 -10 3 -21 1 -24 -5z"/>
<path d="M13260 16342 c0 -26 121 -109 274 -187 62 -32 121 -71 160 -107 33
-32 112 -97 175 -145 62 -49 150 -117 195 -153 44 -36 117 -93 161 -128 44
-34 96 -75 115 -91 26 -21 40 -27 50 -20 19 12 -10 39 -221 209 -84 68 -156
127 -159 130 -18 20 -122 101 -155 120 -55 32 -142 87 -190 120 -22 15 -83 51
-135 80 -52 29 -115 69 -139 89 -102 85 -131 103 -131 83z"/>
<path d="M13250 16290 c35 -24 54 -31 30 -11 -14 11 -29 21 -35 21 -5 0 -3 -5
5 -10z"/>
<path d="M13229 16236 c26 -28 110 -81 117 -73 2 2 -22 22 -53 44 -80 55 -92
60 -64 29z"/>
<path d="M13148 16184 c15 -27 150 -130 213 -164 33 -17 97 -60 144 -95 186
-140 343 -261 390 -300 28 -23 116 -91 196 -153 135 -102 148 -110 165 -96 18
13 18 15 -11 39 -22 19 -25 24 -10 20 19 -6 19 -5 1 7 -10 7 -48 37 -85 67
-166 135 -497 359 -699 473 -127 72 -276 178 -286 204 -3 8 -10 14 -16 14 -7
0 -8 -6 -2 -16z"/>
<path d="M13420 16090 c0 -11 41 -31 51 -24 18 11 3 29 -24 29 -15 1 -27 -2
-27 -5z"/>
<path d="M13080 16081 c0 -5 6 -11 14 -14 8 -3 52 -30 98 -59 194 -124 315
-210 450 -321 198 -162 518 -396 535 -390 16 6 16 23 0 43 -52 66 -633 486
-764 554 -26 13 -104 63 -172 110 -114 79 -161 101 -161 77z"/>
<path d="M13569 16032 c12 -21 46 -50 246 -207 88 -70 204 -163 259 -207 54
-45 126 -102 160 -127 33 -25 64 -50 68 -55 4 -6 10 -3 14 7 4 11 -2 24 -17
37 -29 23 -13 27 19 4 13 -9 25 -14 28 -12 2 3 -22 25 -54 49 -32 24 -104 80
-159 125 -98 79 -351 256 -405 283 -15 8 -58 38 -97 67 -39 29 -67 46 -62 36z"/>
<path d="M13046 16021 c-7 -10 41 -49 283 -231 90 -67 191 -146 225 -174 145
-122 348 -270 485 -353 39 -24 58 -30 70 -24 13 8 8 17 -34 56 -66 60 -202
162 -415 310 -95 66 -259 181 -364 256 -241 171 -243 172 -250 160z"/>
<path d="M12964 15911 c3 -5 63 -49 134 -98 142 -100 299 -219 501 -381 74
-59 155 -121 180 -139 25 -18 84 -62 131 -98 47 -36 88 -65 93 -65 27 0 -29
81 -99 143 -103 92 -361 278 -741 532 -150 100 -217 136 -199 106z"/>
<path d="M12931 15818 c14 -13 97 -76 185 -140 87 -64 198 -149 245 -190 48
-40 149 -122 225 -183 76 -60 173 -141 216 -179 49 -42 84 -66 93 -62 26 9 17
33 -27 72 l-43 37 40 -23 c22 -13 48 -30 58 -38 9 -8 17 -10 17 -5 0 6 -48 44
-107 83 -60 40 -204 145 -322 234 -249 188 -276 207 -441 319 -127 85 -191
119 -139 75z"/>
<path d="M12843 15742 c9 -10 52 -40 94 -67 156 -97 269 -195 255 -220 -3 -5
-2 -7 3 -3 4 4 29 -10 54 -30 25 -21 78 -60 116 -87 39 -27 131 -95 205 -150
165 -124 221 -157 255 -153 24 3 19 9 -61 76 -96 81 -348 268 -512 380 -59 41
-125 88 -147 106 -78 63 -188 138 -221 152 -46 19 -61 18 -41 -4z"/>
<path d="M12810 15697 c0 -6 192 -133 288 -191 6 -4 12 -5 12 -2 0 7 -114 87
-207 145 -78 48 -93 56 -93 48z"/>
<path d="M13945 15285 c22 -20 57 -52 77 -71 20 -19 39 -30 42 -25 4 5 -25 36
-64 68 -81 66 -115 84 -55 28z"/>
<path d="M15585 15240 c-8 -24 3 -43 20 -36 7 2 16 -2 19 -10 3 -8 12 -14 19
-14 8 0 31 -16 52 -35 35 -33 71 -43 70 -20 -1 11 -152 135 -165 135 -5 0 -11
-9 -15 -20z"/>
<path d="M12634 15192 c-62 -71 -194 -237 -363 -459 -83 -109 -194 -252 -246
-318 -121 -153 -237 -315 -225 -315 30 0 584 696 804 1009 94 134 107 170 30
83z"/>
<path d="M12728 15117 c-65 -75 -95 -115 -230 -307 -44 -63 -96 -133 -115
-155 -60 -69 -327 -408 -360 -458 -18 -26 -76 -108 -129 -183 -53 -74 -93
-138 -90 -142 4 -3 10 -1 15 4 209 232 520 626 691 874 13 19 67 94 121 165
101 137 179 252 179 267 0 21 -23 2 -82 -65z"/>
<path d="M12868 15073 c-48 -52 -183 -224 -209 -268 -12 -20 -19 -38 -16 -41
20 -20 276 294 277 339 0 16 -17 5 -52 -30z"/>
<path d="M13200 14678 c-155 -176 -395 -461 -502 -594 -48 -60 -104 -128 -124
-152 -20 -23 -35 -45 -32 -48 10 -9 155 146 308 330 41 50 129 149 195 221
147 160 201 224 249 294 34 50 45 81 29 81 -5 0 -60 -60 -123 -132z"/>
<path d="M12544 14518 c-61 -64 -248 -293 -329 -403 -62 -84 -317 -391 -420
-505 -228 -253 -445 -519 -445 -547 0 -9 21 4 58 35 111 97 165 154 414 442
64 74 170 194 234 265 64 72 144 166 177 210 32 44 81 107 108 141 81 102 279
390 279 405 0 22 -30 5 -76 -43z"/>
<path d="M11565 13957 c-16 -23 -70 -89 -120 -147 -164 -191 -252 -306 -242
-316 17 -17 340 375 392 476 23 44 5 36 -30 -13z"/>
<path d="M11663 13824 c-83 -71 -323 -366 -323 -398 0 -16 3 -15 31 5 17 12
59 56 93 97 33 42 87 105 119 141 77 88 109 136 105 156 -3 16 -5 16 -25 -1z"/>
<path d="M12184 13706 c-21 -25 -145 -160 -274 -302 -326 -357 -340 -374 -311
-374 17 0 279 252 367 352 176 202 263 313 277 351 12 32 -19 18 -59 -27z"/>
<path d="M10997 13163 c-86 -86 -152 -172 -141 -183 4 -3 14 6 23 20 9 14 60
72 114 129 83 89 108 121 94 121 -2 0 -42 -39 -90 -87z"/>
<path d="M10161 12455 c-33 -36 -61 -71 -61 -77 0 -6 9 -3 19 6 23 21 114 136
108 136 -3 0 -32 -29 -66 -65z"/>
<path d="M15579 14448 c-122 -154 -232 -373 -246 -489 -5 -46 -4 -49 45 -101
28 -29 100 -96 160 -148 60 -52 131 -123 158 -157 l49 -62 16 87 c33 167 103
330 235 549 82 135 69 139 -39 13 -43 -49 -82 -90 -87 -90 -15 0 24 82 74 156
39 58 49 94 27 94 -3 0 -26 -26 -51 -57 -48 -60 -58 -74 -104 -144 -32 -48
-48 -38 -20 13 9 18 28 56 41 83 14 28 34 62 44 77 21 29 25 58 8 58 -13 0
-34 -24 -107 -123 -31 -43 -58 -74 -60 -69 -3 10 66 150 99 200 23 35 16 41
-19 16 -25 -17 -26 -16 -12 20 15 40 4 31 -35 -29 -40 -63 -63 -74 -40 -18 8
20 13 38 11 41 -3 2 -12 -13 -20 -33 -21 -49 -89 -141 -94 -127 -2 7 5 24 16
39 36 52 105 194 97 201 -10 10 -111 -104 -132 -149 -10 -21 -22 -39 -26 -39
-4 0 -2 10 4 22 6 12 13 44 15 72 2 48 30 133 40 124 2 -3 -5 -31 -16 -63 -11
-32 -20 -61 -20 -64 1 -10 28 44 49 98 20 50 21 51 1 51 -12 0 -36 -21 -61
-52z"/>
<path d="M8845 12572 c-105 -54 -146 -82 -125 -82 19 0 240 112 240 122 0 15
-27 6 -115 -40z"/>
<path d="M8991 12505 c-64 -24 -171 -90 -171 -106 0 -5 1 -9 3 -9 9 0 267 130
267 135 0 11 -37 3 -99 -20z"/>
<path d="M9295 12433 c-171 -38 -339 -116 -502 -231 -56 -39 -113 -77 -127
-83 -31 -15 -33 -25 -6 -34 41 -13 108 8 270 85 91 43 221 103 290 133 166 73
200 89 200 99 0 4 -13 14 -30 23 -28 15 -55 17 -95 8z"/>
<path d="M9596 12378 c3 -13 19 -48 34 -78 15 -30 39 -86 54 -125 15 -38 52
-122 81 -185 29 -63 72 -167 95 -230 24 -63 49 -122 56 -130 12 -12 14 -9 14
25 0 78 -40 190 -150 420 -122 256 -160 325 -181 325 -6 0 -7 -10 -3 -22z"/>
<path d="M9200 12222 c-185 -71 -390 -181 -390 -209 0 -28 60 -8 251 85 101
49 209 101 240 116 32 14 62 33 69 41 24 29 -41 16 -170 -33z"/>
<path d="M8541 12148 c1 -13 5 -36 9 -53 7 -26 8 -22 9 23 0 29 -3 52 -9 52
-5 0 -9 -10 -9 -22z"/>
<path d="M9210 12086 c-36 -12 -85 -33 -110 -46 -64 -32 -170 -103 -170 -113
0 -13 36 1 130 49 47 24 123 59 170 78 130 52 113 80 -20 32z"/>
<path d="M9654 12075 c44 -124 188 -425 193 -408 5 14 -17 75 -72 202 -55 130
-67 153 -94 191 -40 56 -43 57 -27 15z"/>
<path d="M7880 11726 c-92 -35 -141 -63 -210 -121 -41 -34 -90 -95 -76 -95 3
0 43 26 88 58 103 73 216 134 288 157 72 23 84 35 35 35 -22 -1 -78 -16 -125
-34z"/>
<path d="M8380 11657 c0 -23 34 -89 54 -106 25 -21 19 -2 -19 64 -19 33 -35
52 -35 42z"/>
<path d="M8038 11546 c-58 -30 -137 -74 -175 -99 -71 -46 -141 -112 -131 -123
4 -3 33 12 65 33 64 44 155 97 278 163 103 56 115 63 115 72 0 20 -54 3 -152
-46z"/>
<path d="M8285 11485 c-134 -36 -281 -113 -405 -211 -97 -78 -240 -216 -240
-233 0 -6 17 -11 40 -11 56 0 125 37 315 170 88 62 206 142 262 179 106 69
121 84 102 107 -13 16 -10 16 -74 -1z"/>
<path d="M8275 11312 c-217 -127 -422 -268 -479 -331 -17 -19 -17 -21 -2 -21
43 0 215 107 429 267 150 114 183 143 159 143 -4 0 -52 -26 -107 -58z"/>
<path d="M7467 11343 c-9 -8 -9 -150 -1 -180 13 -46 24 -9 24 75 0 83 -8 120
-23 105z"/>
<path d="M8274 11163 c-226 -145 -415 -293 -375 -293 10 0 171 100 226 141
151 111 255 193 255 200 0 17 -17 9 -106 -48z"/>
<path d="M8216 10965 c-110 -66 -228 -165 -197 -165 29 0 273 181 260 194 -3
3 -31 -10 -63 -29z"/>
<path d="M6820 10826 c-179 -66 -359 -202 -415 -313 -27 -53 -30 -67 -30 -158
0 -90 3 -105 27 -152 47 -88 54 -83 38 27 -6 46 -6 77 2 105 l12 40 7 -65 c4
-36 15 -89 26 -119 19 -58 43 -79 43 -39 0 27 -44 189 -58 215 -14 24 26 101
86 166 40 43 202 182 309 267 49 38 25 52 -47 26z"/>
<path d="M6855 10711 c-144 -95 -305 -244 -305 -283 0 -17 17 -5 145 105 69
60 155 129 190 153 75 53 85 64 53 64 -13 0 -50 -18 -83 -39z"/>
<path d="M7376 10557 c15 -20 30 -34 33 -31 7 6 -33 57 -49 62 -7 3 0 -11 16
-31z"/>
<path d="M7135 10554 c-167 -88 -475 -352 -475 -406 0 -8 6 -23 14 -33 13 -18
14 -18 50 3 58 34 179 129 310 243 171 147 206 190 175 210 -19 12 -20 12 -74
-17z"/>
<path d="M6155 10515 c-4 -25 -5 -48 -2 -51 3 -3 9 15 12 41 4 25 5 48 2 51
-3 3 -9 -15 -12 -41z"/>
<path d="M7200 10418 c-88 -62 -359 -289 -399 -335 -38 -43 -49 -63 -35 -63
30 0 471 367 495 411 15 29 -9 23 -61 -13z"/>
<path d="M7214 10292 c-33 -26 -122 -100 -197 -165 -121 -106 -155 -142 -144
-153 15 -16 427 328 427 357 0 19 -27 7 -86 -39z"/>
<path d="M7131 10054 c-156 -149 -146 -168 16 -33 79 67 123 113 123 130 0 26
-40 -2 -139 -97z"/>
<path d="M8813 10122 c-48 -30 -58 -50 -15 -28 24 12 72 56 61 56 -2 0 -23
-13 -46 -28z"/>
<path d="M8903 10046 c-51 -30 -230 -152 -297 -203 -100 -77 -61 -86 59 -13
80 48 297 210 310 230 11 18 -29 10 -72 -14z"/>
<path d="M9120 10031 c0 -26 -128 -129 -298 -241 -175 -115 -212 -144 -197
-158 16 -16 221 99 347 195 114 87 190 176 173 203 -8 13 -25 13 -25 1z"/>
<path d="M5975 9768 c-60 -32 -150 -103 -189 -151 -85 -104 -143 -307 -103
-362 20 -26 37 -10 37 33 0 20 6 60 14 89 30 111 71 166 235 314 50 46 81 81
77 88 -10 16 -25 13 -71 -11z"/>
<path d="M6065 9696 c-34 -15 -193 -131 -213 -155 -49 -59 -90 -136 -101 -188
-14 -67 -11 -175 5 -180 6 -2 25 41 43 99 59 189 85 230 226 357 51 46 84 82
73 81 -2 -1 -16 -7 -33 -14z"/>
<path d="M5663 9547 c-32 -35 -51 -78 -64 -149 -12 -65 -7 -118 11 -118 6 0
10 15 10 33 0 44 24 142 50 201 24 56 22 65 -7 33z"/>
<path d="M5555 9515 c-15 -25 -33 -78 -40 -122 -28 -154 -15 -153 20 0 13 58
31 119 40 136 24 47 9 37 -20 -14z"/>
<path d="M6305 9533 c-31 -16 -92 -67 -161 -137 -86 -86 -119 -126 -144 -179
-24 -49 -30 -71 -22 -79 8 -8 49 30 149 133 286 296 307 326 178 262z"/>
<path d="M7860 9459 c0 -5 5 -7 10 -4 6 3 10 8 10 11 0 2 -4 4 -10 4 -5 0 -10
-5 -10 -11z"/>
<path d="M5410 9435 c-9 -11 -11 -35 -7 -82 10 -106 27 -102 27 5 0 51 -2 92
-4 92 -2 0 -9 -7 -16 -15z"/>
<path d="M5482 9430 c0 -14 2 -19 5 -12 2 6 2 18 0 25 -3 6 -5 1 -5 -13z"/>
<path d="M6323 9385 c-130 -112 -253 -252 -253 -289 0 -40 24 -19 197 169 115
125 150 171 140 182 -3 2 -41 -26 -84 -62z"/>
<path d="M8075 9413 c-34 -18 -193 -144 -272 -217 -48 -43 -67 -76 -45 -76 27
0 362 280 362 302 0 11 -11 9 -45 -9z"/>
<path d="M5906 9330 c-18 -45 -21 -70 -7 -54 12 12 34 84 28 90 -2 3 -12 -13
-21 -36z"/>
<path d="M6404 9312 c-52 -39 -214 -209 -237 -250 -36 -64 7 -31 137 104 72
75 135 143 139 151 15 26 1 24 -39 -5z"/>
<path d="M8200 9273 c-30 -25 -115 -95 -189 -156 -73 -62 -158 -131 -188 -154
-59 -45 -56 -61 7 -42 45 14 277 183 358 262 45 44 92 111 92 132 0 15 -31 -1
-80 -42z"/>
<path d="M6434 9178 c-67 -64 -144 -168 -144 -195 0 -23 20 -4 115 113 127
155 137 185 29 82z"/>
<path d="M7039 8732 c-139 -143 -152 -159 -144 -172 9 -15 23 -2 151 138 97
105 116 132 96 132 -4 0 -51 -44 -103 -98z"/>
<path d="M7204 8698 c-161 -166 -230 -266 -146 -212 59 38 232 240 232 271 0
24 -15 14 -86 -59z"/>
<path d="M6120 8641 c25 -48 142 -159 206 -196 91 -54 184 -94 214 -95 16 0
-15 20 -87 56 -88 45 -134 76 -218 150 -122 108 -131 115 -115 85z"/>
<path d="M7050 7976 c0 -11 137 -111 207 -151 95 -55 120 -59 38 -7 -33 21
-98 66 -144 100 -76 56 -101 70 -101 58z"/>
<path d="M11092 11632 c2 -4 16 -33 31 -64 36 -72 47 -165 41 -370 -4 -111 -2
-158 6 -158 19 0 50 85 61 171 22 164 -7 297 -83 384 -35 39 -66 60 -56 37z"/>
<path d="M10746 11622 c-3 -5 17 -36 44 -70 28 -33 62 -82 78 -108 35 -60 53
-68 42 -20 -10 47 -50 111 -100 164 -41 42 -54 49 -64 34z"/>
<path d="M10560 11546 c0 -8 27 -66 61 -128 80 -149 129 -204 95 -106 -27 79
-48 122 -89 186 -39 59 -67 79 -67 48z"/>
<path d="M10460 11526 c0 -7 18 -41 40 -75 22 -34 56 -92 76 -129 63 -115 85
-122 40 -13 -44 110 -156 265 -156 217z"/>
<path d="M9875 11300 c-189 -47 -493 -145 -530 -171 l-30 -20 45 6 c25 4 81
18 125 31 202 61 401 114 410 110 15 -6 130 -240 161 -328 32 -95 28 -117 -31
-158 -142 -98 -526 -195 -618 -156 -69 28 -218 200 -278 319 -32 62 -49 73
-49 30 0 -70 97 -213 213 -316 119 -105 135 -112 252 -112 142 1 309 56 459
153 104 66 135 110 136 190 0 88 -78 278 -158 385 -37 48 -48 52 -107 37z"/>
<path d="M9990 11294 c0 -3 15 -24 34 -47 36 -44 111 -187 141 -270 24 -63 29
-55 9 14 -32 110 -144 309 -175 309 -5 0 -9 -3 -9 -6z"/>
<path d="M11020 11189 c0 -49 10 -99 21 -99 14 0 10 83 -6 110 l-14 25 -1 -36z"/>
<path d="M9875 10387 c-77 -27 -259 -29 -350 -4 -68 19 -85 14 -32 -8 131 -55
269 -60 385 -15 42 17 84 34 92 40 27 17 -30 10 -95 -13z"/>
<path d="M11957 10380 c3 -11 9 -22 13 -25 5 -3 6 4 3 15 -3 11 -9 22 -13 25
-5 3 -6 -4 -3 -15z"/>
<path d="M11979 10090 c-27 -22 -13 -26 25 -9 14 7 23 16 20 20 -8 14 -20 11
-45 -11z"/>
<path d="M12025 9984 c-38 -8 -104 -21 -146 -29 -103 -19 -189 -44 -189 -56 0
-13 36 -11 174 11 151 25 263 61 250 81 -3 5 -8 8 -12 8 -4 -1 -38 -8 -77 -15z"/>
<path d="M12175 9885 c-22 -9 -95 -23 -162 -32 -143 -20 -144 -37 -3 -37 91 0
170 25 206 65 20 22 13 23 -41 4z"/>
<path d="M9896 8882 c-16 -27 20 -205 55 -275 11 -21 22 -37 24 -35 3 2 -9 58
-25 124 -16 65 -32 137 -37 159 -6 26 -11 36 -17 27z"/>
<path d="M10286 8035 c11 -27 193 -135 229 -135 39 0 8 25 -131 104 -85 48
-107 55 -98 31z"/>
<path d="M9140 7353 c0 -31 64 -233 73 -233 15 0 -3 90 -35 173 -30 78 -38 91
-38 60z"/>
<path d="M9320 6803 c0 -38 -7 -131 -15 -208 -7 -77 -13 -141 -11 -142 1 -2
12 16 24 40 49 99 58 377 12 377 -6 0 -10 -28 -10 -67z"/>
<path d="M9690 6861 c0 -19 67 -65 148 -103 109 -50 198 -73 357 -93 236 -28
272 -45 97 -45 -126 0 -217 9 -365 36 -84 16 -118 13 -87 -7 8 -5 51 -21 95
-35 118 -38 294 -44 430 -15 54 12 101 24 103 26 2 2 -12 6 -30 10 -18 4 -55
20 -83 35 -28 16 -100 40 -165 55 -203 47 -343 86 -418 116 -82 33 -82 32 -82
20z"/>
<path d="M9810 6571 c0 -22 62 -48 180 -76 153 -35 266 -33 408 10 50 16 92
31 92 34 0 3 -114 6 -253 6 -228 0 -333 8 -409 31 -10 3 -18 0 -18 -5z"/>
<path d="M10181 6399 c-80 -10 -98 -16 -84 -30 27 -27 283 4 283 35 0 8 -123
5 -199 -5z"/>
<path d="M9642 6303 c-38 -74 -152 -331 -152 -342 1 -24 108 170 153 277 62
146 61 142 48 142 -5 0 -27 -35 -49 -77z"/>
<path d="M10005 6320 c-16 -7 -13 -9 15 -8 19 0 46 4 60 8 21 7 19 8 -15 8
-22 0 -49 -3 -60 -8z"/>
<path d="M5232 7574 c-182 -184 -390 -403 -461 -487 -119 -140 -218 -254 -373
-430 -76 -86 -202 -183 -351 -272 -143 -84 -279 -215 -224 -215 7 0 37 25 67
56 72 73 153 130 270 189 148 74 221 127 286 207 32 39 104 126 159 192 55 67
133 164 173 217 103 137 221 269 482 539 252 260 324 340 307 340 -2 0 -152
-151 -335 -336z"/>
<path d="M5518 7189 c-32 -18 -273 -336 -405 -533 -29 -44 -67 -95 -84 -113
-17 -19 -29 -36 -26 -39 5 -6 195 191 263 272 49 59 270 381 281 410 6 16 -5
18 -29 3z"/>
<path d="M5560 6957 c-28 -24 -223 -245 -335 -378 -101 -120 -231 -266 -365
-409 -271 -289 -385 -429 -396 -486 -8 -43 2 -56 16 -20 24 63 133 192 384
456 76 80 171 188 212 240 40 52 86 110 102 127 16 18 58 65 93 105 35 40 91
102 123 138 97 107 208 250 194 250 -2 0 -14 -10 -28 -23z"/>
<path d="M4973 6671 c-33 -33 -100 -104 -149 -158 -48 -54 -126 -137 -171
-184 -77 -80 -97 -109 -74 -109 19 0 80 61 244 245 183 206 222 253 215 260
-3 3 -32 -22 -65 -54z"/>
<path d="M4824 6337 c-117 -122 -178 -197 -157 -197 13 0 303 304 303 318 0 6
-4 12 -9 12 -5 0 -66 -60 -137 -133z"/>
<path d="M3840 6351 c-57 -30 -150 -105 -150 -122 0 -6 10 -4 22 2 35 19 201
150 187 149 -2 -1 -29 -14 -59 -29z"/>
<path d="M4175 6348 c-33 -17 -78 -44 -100 -61 -61 -46 -165 -150 -165 -164 0
-27 28 -11 95 55 39 37 106 94 150 126 121 89 126 99 20 44z"/>
<path d="M4259 6256 c-96 -71 -209 -202 -194 -225 8 -14 35 -14 35 -1 0 5 55
66 121 135 82 85 115 125 103 125 -11 0 -40 -16 -65 -34z"/>
<path d="M4349 6106 c-95 -80 -151 -145 -147 -170 2 -11 8 -21 13 -22 8 -2 99
99 194 217 42 51 17 41 -60 -25z"/>
<path d="M4512 5975 c-132 -136 -159 -169 -143 -179 4 -3 43 32 86 77 43 45
112 117 154 160 60 61 71 77 55 77 -14 0 -66 -46 -152 -135z"/>
<path d="M11569 6173 c-13 -16 -12 -17 4 -4 9 7 17 15 17 17 0 8 -8 3 -21 -13z"/>
<path d="M10421 6020 c-24 -11 -86 -27 -136 -34 -57 -9 -112 -24 -146 -41 -61
-31 -119 -72 -119 -85 0 -10 19 -6 124 26 43 14 81 23 83 21 2 -2 -31 -31 -74
-63 -42 -33 -75 -64 -72 -69 13 -30 117 17 213 95 24 19 71 55 104 79 63 45
104 91 80 91 -7 0 -33 -9 -57 -20z"/>
<path d="M11328 5952 c-42 -31 -95 -70 -118 -86 -51 -35 -45 -47 7 -15 65 39
214 163 192 158 -2 0 -38 -26 -81 -57z"/>
<path d="M10580 5882 c-69 -37 -143 -81 -166 -97 -53 -40 -194 -166 -194 -176
0 -14 38 -16 69 -3 37 16 129 84 226 169 39 34 98 83 132 108 116 89 98 88
-67 -1z"/>
<path d="M10616 5745 c-160 -81 -328 -247 -289 -286 13 -13 44 5 128 74 66 55
268 257 257 257 -4 0 -47 -20 -96 -45z"/>
<path d="M9763 5622 c-26 -22 -90 -85 -142 -142 -52 -56 -147 -147 -210 -203
-64 -55 -120 -104 -126 -109 -35 -31 186 79 280 140 75 48 181 150 229 220 29
43 48 132 28 132 -6 0 -32 -17 -59 -38z"/>
<path d="M10623 5572 c-134 -107 -231 -258 -178 -278 45 -17 237 190 258 277
5 20 2 29 -9 33 -21 8 -17 10 -71 -32z"/>
<path d="M10810 5463 c-38 -15 -111 -74 -196 -160 l-94 -94 15 -30 c9 -16 20
-29 25 -29 19 0 300 291 300 311 0 10 -26 11 -50 2z"/>
<path d="M9917 5422 c-20 -16 -86 -76 -147 -134 -65 -63 -153 -134 -216 -174
-90 -59 -101 -69 -79 -72 16 -2 66 17 133 49 113 56 173 107 305 260 76 89 79
130 4 71z"/>
<path d="M10110 5351 c-19 -16 -33 -32 -29 -35 6 -7 79 44 79 56 0 15 -15 8
-50 -21z"/>
<path d="M10833 5296 c-48 -41 -119 -106 -157 -144 l-69 -70 20 -29 c11 -15
72 -125 135 -243 63 -118 126 -233 140 -256 14 -22 42 -73 63 -114 62 -124
202 -365 333 -575 182 -292 202 -323 218 -336 13 -11 14 -8 8 17 -4 16 -13 41
-20 56 -8 15 -14 31 -14 35 1 14 30 -30 60 -88 25 -49 60 -93 60 -75 0 23 -47
140 -84 209 -55 102 -71 150 -31 92 15 -22 47 -67 70 -100 23 -33 68 -107 100
-165 75 -135 117 -200 144 -224 12 -11 -27 77 -93 210 -64 126 -140 283 -171
348 -57 123 -68 168 -18 76 15 -28 79 -142 142 -253 62 -111 138 -247 169
-302 90 -161 158 -268 188 -295 l27 -25 -27 45 c-14 25 -66 124 -115 220 -48
96 -129 249 -180 339 -50 89 -110 200 -133 245 -40 80 -156 285 -416 736 -75
129 -158 282 -185 340 -53 112 -109 207 -134 227 -13 10 -9 21 29 80 62 93 61
93 44 93 -8 0 -55 -33 -103 -74z"/>
<path d="M9875 5256 c-55 -55 -99 -104 -98 -108 5 -14 -89 -88 -166 -133 -59
-34 -79 -50 -69 -56 18 -12 36 -5 161 54 83 39 112 49 124 41 9 -6 18 -15 20
-20 1 -5 -55 -39 -125 -76 -117 -62 -124 -67 -90 -68 38 0 131 32 203 69 37
20 75 28 75 15 0 -21 -30 -48 -97 -84 -43 -24 -89 -51 -102 -61 -23 -18 -23
-19 -3 -19 12 0 65 16 118 35 109 40 147 44 142 18 -2 -10 -44 -39 -103 -69
-92 -48 -125 -74 -94 -74 7 0 63 16 124 37 106 34 145 38 145 13 0 -6 -21 -21
-47 -32 -167 -73 -195 -117 -51 -79 186 48 218 23 61 -48 -56 -25 -101 -50
-99 -56 6 -20 46 -16 134 14 106 36 112 37 112 13 0 -12 -27 -30 -91 -59 -59
-27 -88 -46 -84 -54 9 -13 33 -9 133 21 74 22 127 21 119 -3 -2 -7 -41 -28
-87 -48 -131 -56 -119 -78 24 -46 l89 21 38 -44 c21 -25 78 -101 126 -170 221
-319 246 -353 526 -723 161 -214 232 -296 244 -283 9 8 -47 93 -274 413 -34
49 -81 115 -104 148 -23 33 -53 75 -67 93 -13 17 -22 32 -18 32 3 0 60 -69
127 -152 165 -209 180 -226 171 -203 -16 41 -47 101 -74 142 -16 23 -28 45
-28 48 0 4 -15 28 -33 54 -49 67 -54 82 -12 36 20 -22 75 -98 123 -170 93
-140 223 -318 228 -312 4 4 -50 105 -148 277 -36 63 -99 177 -139 253 -41 76
-107 195 -147 264 -41 70 -101 177 -134 238 -33 60 -95 166 -137 235 -102 164
-169 279 -215 365 -46 85 -83 131 -203 256 -50 53 -95 108 -98 122 -4 15 -12
26 -19 26 -6 -1 -56 -47 -111 -103z"/>
<path d="M12405 5130 c20 -139 66 -282 99 -309 21 -18 21 -15 -14 87 -17 48
-40 123 -51 167 -23 92 -44 125 -34 55z"/>
<path d="M12530 5101 c0 -14 114 -292 156 -378 19 -40 39 -73 45 -73 12 0 15
-8 -40 131 -83 212 -161 367 -161 320z"/>
<path d="M8980 4860 c-95 -5 -102 -6 -75 -17 124 -50 433 -38 353 14 -15 9
-124 10 -278 3z"/>
<path d="M8939 4762 c15 -29 88 -42 235 -42 126 0 156 8 137 39 -7 10 -54 15
-196 19 -187 5 -187 5 -176 -16z"/>
<path d="M9000 4675 c33 -40 308 -85 349 -57 22 16 5 40 -31 46 -135 19 -202
26 -262 26 -60 0 -67 -2 -56 -15z"/>
<path d="M9070 4571 c0 -38 129 -74 313 -87 85 -7 87 -6 87 15 0 31 -31 40
-220 62 -195 22 -180 21 -180 10z"/>
<path d="M12545 4493 c9 -39 83 -183 110 -218 28 -34 44 -27 26 12 -18 41
-132 233 -138 233 -3 0 -2 -12 2 -27z"/>
<path d="M9130 4467 c0 -3 4 -17 10 -31 13 -34 107 -62 275 -82 168 -20 203
-12 155 36 -12 12 -33 20 -52 20 -34 0 -326 45 -365 56 -13 3 -23 4 -23 1z"/>
<path d="M12815 4400 c8 -30 96 -233 136 -312 28 -54 49 -80 49 -59 0 37 -134
332 -169 371 l-22 25 6 -25z"/>
<path d="M9200 4321 c0 -15 54 -50 102 -67 152 -54 401 -68 386 -22 -7 19 -74
36 -271 68 -208 33 -217 34 -217 21z"/>
<path d="M9310 4178 c0 -16 84 -68 131 -83 105 -30 337 -44 341 -20 2 17 -83
43 -198 61 -60 9 -146 24 -191 34 -46 9 -83 13 -83 8z"/>
<path d="M11585 4008 c19 -45 77 -156 129 -247 51 -91 153 -281 226 -421 128
-246 213 -390 231 -390 5 0 9 3 9 7 0 18 -326 624 -397 738 -27 44 -78 134
-113 200 -66 125 -107 195 -115 195 -2 0 11 -37 30 -82z"/>
<path d="M9450 4031 c0 -15 36 -40 90 -65 44 -19 79 -26 178 -31 169 -10 164
17 -10 50 -46 9 -122 25 -170 35 -49 10 -88 15 -88 11z"/>
<path d="M9670 3892 c0 -16 94 -53 139 -55 73 -3 57 18 -26 37 -43 10 -86 20
-95 22 -10 3 -18 1 -18 -4z"/>
<path d="M9422 3764 c5 -20 145 -311 297 -618 79 -160 173 -356 208 -436 36
-80 137 -287 224 -460 259 -516 253 -505 283 -508 19 -2 26 1 26 13 0 15 -200
424 -220 450 -4 6 -89 170 -188 365 -99 195 -205 402 -236 460 -31 58 -113
218 -181 355 -103 207 -226 424 -213 379z"/>
<path d="M13145 3733 c9 -21 23 -49 32 -63 34 -53 153 -207 192 -250 l41 -45
-16 40 c-19 47 -28 61 -152 228 -52 70 -98 127 -103 127 -5 0 -2 -17 6 -37z"/>
<path d="M9759 3673 c40 -102 114 -248 186 -368 73 -123 192 -282 203 -271 3
3 -18 43 -45 88 -96 158 -196 333 -241 423 -49 99 -98 175 -112 175 -5 0 -1
-21 9 -47z"/>
<path d="M9854 3595 c49 -103 192 -330 227 -361 22 -19 22 -19 17 3 -9 33
-178 300 -221 347 -34 37 -36 38 -23 11z"/>
<path d="M9624 3530 c41 -100 713 -1442 823 -1642 l75 -138 37 0 c63 0 64 8
14 95 -25 44 -92 168 -148 275 -222 426 -276 523 -455 825 -152 258 -226 389
-294 525 -72 143 -97 172 -52 60z"/>
<path d="M9771 3465 c39 -96 283 -583 325 -650 28 -44 86 -147 129 -230 43
-82 97 -184 120 -225 40 -72 65 -117 179 -327 29 -54 75 -138 102 -186 l49
-89 65 7 c35 3 66 8 68 10 2 2 -25 50 -61 107 -35 57 -92 153 -127 213 -35 61
-78 133 -95 160 -18 28 -83 140 -145 250 -100 179 -249 422 -333 545 -96 141
-150 226 -201 315 -62 107 -98 155 -75 100z"/>
<path d="M12990 3474 c0 -24 250 -397 375 -559 112 -146 279 -347 312 -377 16
-15 23 -16 46 -5 15 6 27 16 27 20 0 5 -26 41 -58 80 -32 40 -107 137 -167
217 -276 368 -535 670 -535 624z"/>
<path d="M12720 3409 c0 -15 133 -199 144 -199 4 0 0 12 -9 28 -28 44 -128
182 -132 182 -1 0 -3 -5 -3 -11z"/>
<path d="M13020 3187 c0 -12 29 -53 120 -167 41 -53 83 -107 93 -120 13 -18
16 -19 12 -6 -16 52 -223 322 -225 293z"/>
<path d="M11750 3123 c0 -12 106 -188 176 -293 28 -41 115 -178 194 -305 174
-279 270 -427 284 -438 13 -9 66 -1 79 12 8 8 -228 370 -441 675 -134 191
-292 381 -292 349z"/>
<path d="M10280 3034 c0 -3 13 -24 29 -47 15 -23 70 -109 120 -192 51 -82 112
-179 135 -215 24 -36 70 -114 103 -175 68 -123 319 -531 357 -579 13 -17 27
-28 31 -24 4 4 -48 98 -115 210 -68 112 -167 279 -222 373 -139 238 -340 554
-391 617 -29 34 -47 47 -47 32z"/>
<path d="M12980 3013 c0 -11 106 -177 171 -268 111 -156 209 -261 209 -225 0
18 -19 49 -83 140 -193 271 -297 395 -297 353z"/>
<path d="M11226 2979 c57 -60 89 -60 38 0 -14 17 -35 31 -47 31 -19 0 -19 -2
9 -31z"/>
<path d="M12296 2913 c17 -79 249 -468 407 -681 38 -52 40 -54 75 -47 21 4 39
9 41 11 4 4 -107 170 -183 274 -22 30 -64 90 -92 133 -79 118 -238 336 -247
336 -4 1 -5 -11 -1 -26z"/>
<path d="M11301 2839 c68 -134 410 -652 454 -689 13 -10 15 -9 15 7 0 57 -411
682 -470 713 l-21 11 22 -42z"/>
<path d="M10300 2849 c0 -7 141 -266 174 -318 14 -21 67 -115 119 -207 52 -93
144 -250 204 -349 102 -168 111 -180 141 -183 l32 -3 -80 123 c-95 148 -242
393 -301 503 -23 43 -68 118 -99 165 -31 47 -73 112 -92 145 -35 57 -97 136
-98 124z"/>
<path d="M10620 2704 c0 -3 64 -112 142 -242 77 -130 188 -316 245 -412 119
-198 148 -240 169 -240 28 0 13 32 -75 163 -49 73 -126 193 -171 267 -92 150
-120 195 -227 358 -68 102 -83 122 -83 106z"/>
<path d="M13423 2667 c8 -22 125 -185 139 -193 5 -4 14 -2 19 3 6 6 -9 34 -40
74 -56 74 -128 144 -118 116z"/>
<path d="M11040 2424 c24 -63 147 -291 228 -424 l88 -145 42 -3 c31 -2 42 1
42 11 0 15 -248 395 -335 513 -57 76 -83 96 -65 48z"/>
<path d="M12420 2438 c0 -20 159 -276 185 -298 62 -51 -54 154 -150 265 -19
22 -35 37 -35 33z"/>
<path d="M12170 2209 c0 -21 101 -169 116 -169 30 0 22 23 -29 87 -63 80 -87
102 -87 82z"/>
<path d="M11835 2070 c13 -45 54 -100 75 -100 18 0 16 5 -15 49 -19 27 -43 55
-52 62 -14 12 -15 11 -8 -11z"/>
</g>
</svg>
